<?xml version="1.0" encoding="utf-8"?>
<!-- Generator: Adobe Illustrator 23.0.2, SVG Export Plug-In . SVG Version: 6.00 Build 0)  -->
<svg version="1.1" id="Drawing_copy" xmlns="http://www.w3.org/2000/svg" xmlns:xlink="http://www.w3.org/1999/xlink" x="0px"
	 y="0px" viewBox="0 0 723.45 1264.36" style="enable-background:new 0 0 723.45 1264.36;" xml:space="preserve">
<style type="text/css">
	.st0{fill:none;stroke:#000000;stroke-miterlimit:10;}
	.st1{fill:none;stroke:#000000;stroke-width:0.2;}
	.st2{fill:none;stroke:#000000;stroke-width:0.5;}
	.st3{fill:none;stroke:#000000;stroke-width:0.7;stroke-miterlimit:10;}
	.st4{fill:none;stroke:#000000;stroke-width:2;stroke-miterlimit:10;}
	.st5{fill:none;stroke:#000000;stroke-width:0.3;}
	.st6{fill:none;stroke:#000000;stroke-width:1.5;stroke-miterlimit:10;}
	.st7{fill:none;stroke:#000000;stroke-width:2.5;stroke-miterlimit:10;}
	.st8{fill:none;stroke:#000000;stroke-width:2;stroke-linecap:round;stroke-miterlimit:10;}
	.st9{fill:none;stroke:#000000;stroke-width:3;stroke-linecap:round;stroke-miterlimit:10;}
	.st10{fill:none;stroke:#000000;stroke-width:3;stroke-miterlimit:10;}
	.st11{fill:none;}
	.st12{fill:none;stroke:#000000;stroke-width:0.5;stroke-miterlimit:10;}
	.st13{fill:none;stroke:#000000;stroke-width:0.5;stroke-linejoin:round;stroke-miterlimit:10;}
	.st14{fill:none;stroke:#000000;stroke-width:0.4;}
	.st15{fill:none;stroke:#000000;}
	.st16{fill:none;stroke:#000000;stroke-linejoin:round;stroke-miterlimit:10;}
</style>
<g>
	<circle class="st0" cx="344.78" cy="632.21" r="206.24"/>
	<g>
		<path class="st1" d="M320.29,809.14l-0.11,0.77l-1.35-0.2l-0.68,4.64l-0.77-0.11l0.68-4.64l-1.35-0.2l0.11-0.77L320.29,809.14z"/>
		<path class="st1" d="M336.01,815.36c0.65,0.03,0.99-0.2,1.01-0.7c0.02-0.39-0.41-0.75-1.3-1.1c-0.88-0.34-1.31-0.88-1.27-1.6
			c0.05-1.01,0.64-1.5,1.79-1.44c1.09,0.05,1.64,0.59,1.64,1.62l-0.78,0.06c0.03-0.57-0.27-0.87-0.9-0.9
			c-0.63-0.03-0.95,0.2-0.97,0.7c-0.02,0.39,0.41,0.76,1.3,1.1c0.88,0.34,1.31,0.88,1.27,1.6c-0.05,1.01-0.66,1.49-1.83,1.44
			c-1.12-0.05-1.68-0.6-1.67-1.64l0.78-0.04C335.05,815.03,335.36,815.33,336.01,815.36z"/>
		<path class="st1" d="M339.07,816.19l-1.14-5.49l0.78,0.02l0.89,4.39l1.06-4.35l0.98,0.02l0.89,4.39l1.06-4.35l0.78,0.02
			l-1.36,5.44l-1.02-0.02l-0.87-4.21l-1.04,4.17L339.07,816.19z"/>
		<path class="st1" d="M344.84,816.28l-0.09-5.47l0.78-0.01l0.09,5.47L344.84,816.28z"/>
		<path class="st1" d="M348.27,815.53c0.65-0.01,0.97-0.27,0.96-0.76c-0.01-0.39-0.46-0.72-1.37-1.01c-0.9-0.28-1.36-0.79-1.38-1.52
			c-0.02-1.02,0.54-1.53,1.69-1.56c1.09-0.02,1.67,0.48,1.74,1.51l-0.77,0.11c-0.01-0.57-0.33-0.85-0.95-0.84s-0.93,0.26-0.92,0.76
			c0.01,0.39,0.46,0.73,1.37,1.01c0.9,0.29,1.36,0.79,1.38,1.52c0.02,1.01-0.56,1.53-1.73,1.56c-1.13,0.02-1.72-0.49-1.78-1.53
			l0.77-0.09C347.28,815.27,347.61,815.55,348.27,815.53z"/>
		<path class="st1" d="M352.23,815.42c0.65-0.03,0.97-0.29,0.95-0.78c-0.02-0.39-0.48-0.71-1.39-0.98
			c-0.91-0.26-1.38-0.76-1.41-1.49c-0.04-1.01,0.51-1.54,1.66-1.59c1.09-0.04,1.68,0.45,1.77,1.47l-0.77,0.13
			c-0.02-0.57-0.35-0.85-0.97-0.82c-0.63,0.03-0.93,0.29-0.91,0.78c0.02,0.39,0.48,0.72,1.39,0.98c0.91,0.27,1.38,0.76,1.41,1.49
			c0.04,1.01-0.53,1.55-1.7,1.59c-1.12,0.04-1.73-0.45-1.81-1.49l0.77-0.11C351.24,815.17,351.58,815.44,352.23,815.42z"/>
		<path class="st1" d="M371.5,808.82l0.11,0.77l-1.35,0.19l0.65,4.64l-0.77,0.11l-0.65-4.64l-1.35,0.19l-0.11-0.77L371.5,808.82z"/>
	</g>
	<circle class="st0" cx="344.78" cy="632.21" r="210.37"/>
	<circle class="st0" cx="344.78" cy="632.21" r="220.89"/>
	<circle class="st0" cx="344.78" cy="632.21" r="258.44"/>
	<g>
		<path class="st2" d="M584.32,593.84c0.76,0.22,1.64,0.25,2.62,0.08l8.03-1.41l-0.31-1.77l-8.09,1.42
			c-0.92,0.16-1.67,0.05-2.25-0.32c-0.58-0.38-0.95-0.99-1.1-1.84c-0.15-0.84-0.01-1.54,0.41-2.09s1.09-0.91,2.01-1.07l8.09-1.42
			l-0.31-1.77l-8.03,1.41c-0.99,0.17-1.8,0.49-2.44,0.96c-0.64,0.47-1.09,1.07-1.34,1.79c-0.25,0.72-0.29,1.55-0.13,2.48
			c0.16,0.94,0.49,1.7,0.97,2.3C582.94,593.21,583.56,593.62,584.32,593.84z"/>
		<polygon class="st2" points="583.05,599.29 592.37,598.13 583.79,605.27 583.99,606.9 596.66,605.32 596.44,603.56 586.97,604.74 
			595.7,597.57 595.5,595.95 582.83,597.53 		"/>
		
			<rect x="584.29" y="609.39" transform="matrix(0.9962 -0.0875 0.0875 0.9962 -51.1326 54.0231)" class="st2" width="12.78" height="1.79"/>
		<polygon class="st2" points="595.81,615.99 584.75,616.65 584.86,618.44 595.92,617.78 596.13,621.39 597.83,621.28 597.3,612.28 
			595.59,612.38 		"/>
		<path class="st2" d="M595.41,630.4l1.44,0.99c0.29-0.42,0.53-0.85,0.72-1.28s0.33-0.87,0.42-1.32s0.13-0.89,0.12-1.35
			c-0.02-0.96-0.18-1.77-0.49-2.44c-0.31-0.67-0.74-1.18-1.31-1.53c-0.57-0.34-1.25-0.51-2.04-0.49h-0.01
			c-0.9,0.02-1.59,0.22-2.08,0.61s-0.81,0.86-0.98,1.4s-0.33,1.24-0.46,2.1l-0.02,0.13c-0.01,0.02-0.01,0.04-0.01,0.06
			c0,0.02,0,0.04-0.01,0.06c-0.09,0.58-0.2,1.06-0.32,1.43c-0.12,0.37-0.31,0.67-0.56,0.91c-0.26,0.24-0.61,0.36-1.05,0.37h-0.01
			c-0.63,0.01-1.12-0.23-1.47-0.74c-0.35-0.5-0.54-1.22-0.56-2.14c-0.01-0.68,0.08-1.32,0.28-1.91s0.5-1.13,0.92-1.63l-1.39-1.09
			c-0.34,0.42-0.63,0.88-0.85,1.36c-0.22,0.48-0.39,1-0.5,1.55c-0.11,0.55-0.16,0.83-0.16,0.83s0.01,0.31,0.02,0.92
			c0.02,0.99,0.18,1.83,0.49,2.53s0.74,1.22,1.3,1.58c0.56,0.36,1.23,0.53,2.01,0.51l0.02,0c0.84-0.02,1.5-0.2,1.97-0.56
			c0.48-0.36,0.82-0.8,1.02-1.32c0.21-0.52,0.38-1.17,0.52-1.95c0.01-0.03,0.01-0.06,0.02-0.1c0.01-0.04,0.01-0.07,0.02-0.1
			c0.01-0.02,0.01-0.05,0.01-0.07c0-0.02,0.01-0.04,0.01-0.07c0.12-0.67,0.23-1.18,0.34-1.56c0.11-0.37,0.29-0.69,0.54-0.94
			s0.59-0.38,1.03-0.39h0.01c0.64-0.01,1.14,0.22,1.5,0.7c0.36,0.48,0.55,1.15,0.56,2.02c0.01,0.49-0.07,0.97-0.24,1.46
			S595.76,629.9,595.41,630.4z"/>
		<path class="st2" d="M585.16,639.11l4.95,0.19l-0.12,3.15c-0.03,0.76,0.11,1.44,0.41,2.03c0.3,0.59,0.74,1.06,1.32,1.4
			c0.58,0.34,1.25,0.53,2.03,0.56c0.78,0.03,1.47-0.1,2.07-0.4c0.6-0.3,1.08-0.73,1.43-1.3s0.53-1.23,0.56-1.99l0.12-3.15h0
			l0.07-1.79l-12.77-0.48L585.16,639.11z M596.1,642.74c-0.01,0.39-0.12,0.72-0.31,1.01s-0.46,0.5-0.8,0.65
			c-0.34,0.15-0.73,0.21-1.17,0.2c-0.43-0.02-0.81-0.11-1.14-0.29c-0.33-0.17-0.58-0.41-0.75-0.71c-0.17-0.3-0.25-0.64-0.23-1.03
			l0.12-3.21l4.41,0.17L596.1,642.74z"/>
		<polygon class="st2" points="584.59,650.17 584.59,650.17 584.06,656.56 585.76,656.7 586.29,650.31 590.06,650.62 589.61,656.05 
			591.31,656.19 591.76,650.76 595.62,651.08 595.1,657.47 596.8,657.61 597.32,651.22 597.32,651.22 597.47,649.43 584.73,648.38 
					"/>
		<path class="st2" d="M583.57,660.76l5.36,0.69l-0.34,2.65l-5.71,2.01l-0.27,2.11l5.93-2.21c0.04,0.23,0.1,0.46,0.18,0.67
			c0.23,0.59,0.6,1.08,1.12,1.46c0.52,0.38,1.14,0.62,1.86,0.71c0.73,0.09,1.39,0.02,1.98-0.21c0.59-0.23,1.08-0.61,1.45-1.12
			c0.37-0.52,0.61-1.14,0.7-1.87l0.42-3.25l0,0l0.23-1.78l-12.68-1.64L583.57,660.76z M594.14,665.5c-0.04,0.34-0.17,0.63-0.36,0.87
			c-0.2,0.24-0.45,0.41-0.77,0.51c-0.32,0.1-0.67,0.13-1.06,0.08c-0.39-0.05-0.72-0.17-1.01-0.35c-0.28-0.18-0.49-0.41-0.61-0.7
			c-0.13-0.28-0.17-0.59-0.13-0.93l0.43-3.32l3.94,0.51L594.14,665.5z"/>
	</g>
	<g>
		<polygon class="st2" points="578.24,612.49 573.05,612.98 572.58,607.94 577.77,607.46 577.61,605.8 565.84,606.91 566,608.56 
			571.01,608.09 571.48,613.13 566.47,613.6 566.63,615.25 578.39,614.14 		"/>
		<path class="st2" d="M576.69,617.85c-0.67-0.31-1.44-0.45-2.31-0.41l-3.35,0.15c-0.87,0.04-1.62,0.25-2.26,0.62
			c-0.64,0.37-1.13,0.88-1.46,1.53s-0.48,1.38-0.44,2.2s0.25,1.54,0.64,2.15c0.39,0.61,0.92,1.07,1.59,1.39
			c0.67,0.31,1.44,0.45,2.31,0.41l3.35-0.15c0.87-0.04,1.62-0.25,2.26-0.62c0.64-0.37,1.13-0.88,1.46-1.53
			c0.33-0.64,0.48-1.38,0.44-2.2c-0.04-0.82-0.25-1.54-0.64-2.15C577.89,618.62,577.36,618.16,576.69,617.85z M577.02,622.76
			c-0.2,0.38-0.5,0.68-0.9,0.9c-0.39,0.22-0.86,0.34-1.39,0.37l-3.46,0.16c-0.53,0.02-1-0.06-1.42-0.24
			c-0.41-0.18-0.74-0.46-0.97-0.82s-0.37-0.79-0.39-1.27c-0.02-0.49,0.07-0.92,0.27-1.3c0.2-0.38,0.5-0.68,0.89-0.9
			c0.39-0.22,0.86-0.34,1.39-0.37l3.46-0.16c0.53-0.02,1,0.06,1.41,0.24c0.41,0.18,0.74,0.46,0.97,0.82
			c0.24,0.36,0.36,0.79,0.39,1.27S577.22,622.38,577.02,622.76z"/>
		<path class="st2" d="M571.48,630.17l7.6,0.12l0.03-1.66l-7.54-0.12c-0.93-0.02-1.72,0.13-2.39,0.45s-1.17,0.78-1.53,1.39
			c-0.35,0.62-0.54,1.36-0.55,2.23c-0.01,0.88,0.15,1.63,0.48,2.26s0.83,1.11,1.48,1.45s1.44,0.51,2.37,0.53l7.54,0.12l0.03-1.66
			l-7.6-0.12c-0.86-0.01-1.52-0.24-1.99-0.69c-0.46-0.44-0.69-1.06-0.68-1.86c0.01-0.79,0.26-1.4,0.74-1.83
			C569.95,630.36,570.62,630.15,571.48,630.17z"/>
		<path class="st2" d="M567.14,639.4l-0.08,1.66l4.99,0.25l-0.12,2.47l-5.12,2.27l-0.1,1.96l5.32-2.48c0.05,0.21,0.11,0.42,0.2,0.61
			c0.26,0.53,0.63,0.95,1.14,1.27s1.09,0.49,1.77,0.52c0.68,0.03,1.28-0.08,1.81-0.34c0.53-0.26,0.95-0.64,1.26-1.14
			c0.31-0.5,0.48-1.1,0.51-1.78l0.2-3.96h0l0.04-0.72L567.14,639.4z M576.87,645.49c-0.16,0.23-0.39,0.41-0.67,0.53
			c-0.29,0.12-0.61,0.17-0.97,0.15c-0.36-0.02-0.68-0.1-0.95-0.25s-0.48-0.35-0.62-0.6s-0.2-0.53-0.19-0.85l0.15-3.09l3.67,0.18
			l-0.15,3.09C577.12,644.98,577.03,645.26,576.87,645.49z"/>
	</g>
	<line class="st3" x1="340.67" y1="436.06" x2="340.76" y2="440.12"/>
	<line class="st3" x1="336.57" y1="436.19" x2="336.74" y2="440.25"/>
	<line class="st3" x1="332.46" y1="436.4" x2="332.72" y2="440.46"/>
	<line class="st3" x1="328.36" y1="436.7" x2="328.7" y2="440.75"/>
	<line class="st3" x1="324.27" y1="437.09" x2="324.7" y2="441.13"/>
	<line class="st3" x1="320.19" y1="437.56" x2="320.7" y2="441.59"/>
	<line class="st3" x1="316.12" y1="438.12" x2="316.71" y2="442.14"/>
	<line class="st3" x1="312.06" y1="438.76" x2="312.74" y2="442.77"/>
	<line class="st3" x1="308.02" y1="439.49" x2="308.78" y2="443.48"/>
	<line class="st3" x1="303.99" y1="440.3" x2="304.83" y2="444.28"/>
	<line class="st3" x1="299.98" y1="441.2" x2="300.91" y2="445.15"/>
	<line class="st3" x1="295.99" y1="442.18" x2="297" y2="446.11"/>
	<line class="st3" x1="292.02" y1="443.24" x2="293.11" y2="447.16"/>
	<line class="st3" x1="288.08" y1="444.39" x2="289.25" y2="448.28"/>
	<line class="st3" x1="284.15" y1="445.62" x2="285.41" y2="449.48"/>
	<line class="st3" x1="280.26" y1="446.93" x2="281.6" y2="450.77"/>
	<line class="st3" x1="276.39" y1="448.32" x2="277.81" y2="452.13"/>
	<line class="st3" x1="272.56" y1="449.79" x2="274.05" y2="453.57"/>
	<line class="st3" x1="268.75" y1="451.35" x2="270.33" y2="455.09"/>
	<line class="st3" x1="264.98" y1="452.98" x2="266.63" y2="456.69"/>
	<line class="st3" x1="261.25" y1="454.69" x2="262.98" y2="458.36"/>
	<line class="st3" x1="257.55" y1="456.48" x2="259.35" y2="460.12"/>
	<line class="st3" x1="253.89" y1="458.34" x2="255.77" y2="461.94"/>
	<line class="st3" x1="250.26" y1="460.28" x2="252.22" y2="463.84"/>
	<line class="st3" x1="246.68" y1="462.3" x2="248.72" y2="465.82"/>
	<line class="st3" x1="243.15" y1="464.39" x2="245.25" y2="467.87"/>
	<line class="st3" x1="239.66" y1="466.56" x2="241.83" y2="469.99"/>
	<line class="st3" x1="236.21" y1="468.8" x2="238.46" y2="472.18"/>
	<line class="st3" x1="232.81" y1="471.11" x2="235.13" y2="474.44"/>
	<line class="st3" x1="229.46" y1="473.49" x2="231.85" y2="476.77"/>
	<line class="st3" x1="226.16" y1="475.94" x2="228.62" y2="479.17"/>
	<line class="st3" x1="222.92" y1="478.45" x2="225.44" y2="481.64"/>
	<line class="st3" x1="219.72" y1="481.04" x2="222.31" y2="484.17"/>
	<line class="st3" x1="216.58" y1="483.69" x2="219.24" y2="486.77"/>
	<line class="st3" x1="213.5" y1="486.41" x2="216.22" y2="489.43"/>
	<line class="st3" x1="210.48" y1="489.19" x2="213.26" y2="492.15"/>
	<line class="st3" x1="207.51" y1="492.04" x2="210.35" y2="494.94"/>
	<line class="st3" x1="204.61" y1="494.94" x2="207.51" y2="497.78"/>
	<line class="st3" x1="201.76" y1="497.91" x2="204.72" y2="500.69"/>
	<line class="st3" x1="198.98" y1="500.93" x2="202" y2="503.65"/>
	<line class="st3" x1="196.26" y1="504.01" x2="199.34" y2="506.67"/>
	<line class="st3" x1="193.61" y1="507.15" x2="196.74" y2="509.74"/>
	<line class="st3" x1="191.03" y1="510.35" x2="194.21" y2="512.87"/>
	<line class="st3" x1="188.51" y1="513.59" x2="191.74" y2="516.05"/>
	<line class="st3" x1="186.06" y1="516.89" x2="189.34" y2="519.28"/>
	<line class="st3" x1="183.68" y1="520.24" x2="187.01" y2="522.56"/>
	<line class="st3" x1="181.37" y1="523.64" x2="184.75" y2="525.89"/>
	<line class="st3" x1="179.13" y1="527.08" x2="182.56" y2="529.26"/>
	<line class="st3" x1="176.96" y1="530.58" x2="180.44" y2="532.68"/>
	<line class="st3" x1="174.87" y1="534.11" x2="178.39" y2="536.14"/>
	<line class="st3" x1="172.86" y1="537.69" x2="176.41" y2="539.65"/>
	<line class="st3" x1="170.91" y1="541.31" x2="174.51" y2="543.2"/>
	<line class="st3" x1="169.05" y1="544.98" x2="172.69" y2="546.78"/>
	<line class="st3" x1="167.26" y1="548.68" x2="170.93" y2="550.4"/>
	<line class="st3" x1="165.55" y1="552.41" x2="169.26" y2="554.06"/>
	<line class="st3" x1="163.92" y1="556.18" x2="167.66" y2="557.76"/>
	<line class="st3" x1="162.36" y1="559.99" x2="166.14" y2="561.48"/>
	<line class="st3" x1="160.89" y1="563.82" x2="164.7" y2="565.24"/>
	<line class="st3" x1="159.5" y1="567.69" x2="163.34" y2="569.02"/>
	<line class="st3" x1="158.19" y1="571.58" x2="162.05" y2="572.84"/>
	<line class="st3" x1="156.96" y1="575.5" x2="160.85" y2="576.68"/>
	<line class="st3" x1="155.81" y1="579.45" x2="159.73" y2="580.54"/>
	<line class="st3" x1="154.75" y1="583.42" x2="158.68" y2="584.43"/>
	<line class="st3" x1="153.77" y1="587.41" x2="157.73" y2="588.34"/>
	<line class="st3" x1="152.87" y1="591.42" x2="156.85" y2="592.26"/>
	<line class="st3" x1="152.06" y1="595.45" x2="156.05" y2="596.21"/>
	<line class="st3" x1="151.33" y1="599.49" x2="155.34" y2="600.17"/>
	<line class="st3" x1="150.69" y1="603.55" x2="154.71" y2="604.14"/>
	<line class="st3" x1="150.13" y1="607.62" x2="154.16" y2="608.13"/>
	<line class="st3" x1="149.66" y1="611.7" x2="153.7" y2="612.13"/>
	<line class="st3" x1="149.28" y1="615.79" x2="153.32" y2="616.13"/>
	<line class="st3" x1="148.97" y1="619.89" x2="153.03" y2="620.15"/>
	<line class="st3" x1="148.76" y1="624" x2="152.82" y2="624.17"/>
	<line class="st3" x1="148.63" y1="628.1" x2="152.69" y2="628.19"/>
	<line class="st3" x1="148.59" y1="632.21" x2="152.65" y2="632.21"/>
	<line class="st3" x1="148.63" y1="636.32" x2="152.69" y2="636.23"/>
	<line class="st3" x1="148.76" y1="640.43" x2="152.82" y2="640.26"/>
	<line class="st3" x1="148.97" y1="644.53" x2="153.03" y2="644.28"/>
	<line class="st3" x1="149.28" y1="648.63" x2="153.32" y2="648.29"/>
	<line class="st3" x1="149.66" y1="652.72" x2="153.7" y2="652.29"/>
	<line class="st3" x1="150.13" y1="656.8" x2="154.16" y2="656.29"/>
	<line class="st3" x1="150.69" y1="660.87" x2="154.71" y2="660.28"/>
	<line class="st3" x1="151.33" y1="664.93" x2="155.34" y2="664.25"/>
	<line class="st3" x1="152.06" y1="668.97" x2="156.05" y2="668.21"/>
	<line class="st3" x1="152.87" y1="673" x2="156.85" y2="672.16"/>
	<line class="st3" x1="153.77" y1="677.01" x2="157.73" y2="676.08"/>
	<line class="st3" x1="154.75" y1="681" x2="158.68" y2="679.99"/>
	<line class="st3" x1="155.81" y1="684.97" x2="159.73" y2="683.88"/>
	<line class="st3" x1="156.96" y1="688.92" x2="160.85" y2="687.74"/>
	<line class="st3" x1="158.19" y1="692.84" x2="162.05" y2="691.58"/>
	<line class="st3" x1="159.5" y1="696.73" x2="163.34" y2="695.4"/>
	<line class="st3" x1="160.89" y1="700.6" x2="164.7" y2="699.18"/>
	<line class="st3" x1="162.36" y1="704.43" x2="166.14" y2="702.94"/>
	<line class="st3" x1="163.92" y1="708.24" x2="167.66" y2="706.67"/>
	<line class="st3" x1="165.55" y1="712.01" x2="169.26" y2="710.36"/>
	<line class="st3" x1="167.26" y1="715.75" x2="170.93" y2="714.02"/>
	<line class="st3" x1="169.05" y1="719.45" x2="172.69" y2="717.64"/>
	<line class="st3" x1="170.91" y1="723.11" x2="174.51" y2="721.23"/>
	<line class="st3" x1="172.86" y1="726.73" x2="176.41" y2="724.77"/>
	<line class="st3" x1="174.87" y1="730.31" x2="178.39" y2="728.28"/>
	<line class="st3" x1="176.96" y1="733.85" x2="180.44" y2="731.74"/>
	<line class="st3" x1="179.13" y1="737.34" x2="182.56" y2="735.16"/>
	<line class="st3" x1="181.37" y1="740.78" x2="184.75" y2="738.54"/>
	<line class="st3" x1="183.68" y1="744.18" x2="187.01" y2="741.86"/>
	<line class="st3" x1="186.06" y1="747.53" x2="189.34" y2="745.14"/>
	<line class="st3" x1="188.51" y1="750.83" x2="191.74" y2="748.37"/>
	<line class="st3" x1="191.03" y1="754.08" x2="194.21" y2="751.55"/>
	<line class="st3" x1="193.61" y1="757.27" x2="196.74" y2="754.68"/>
	<line class="st3" x1="196.26" y1="760.41" x2="199.34" y2="757.75"/>
	<line class="st3" x1="198.98" y1="763.49" x2="202" y2="760.77"/>
	<line class="st3" x1="201.76" y1="766.52" x2="204.72" y2="763.73"/>
	<line class="st3" x1="204.61" y1="769.48" x2="207.51" y2="766.64"/>
	<line class="st3" x1="207.51" y1="772.39" x2="210.35" y2="769.48"/>
	<line class="st3" x1="210.48" y1="775.23" x2="213.26" y2="772.27"/>
	<line class="st3" x1="213.5" y1="778.01" x2="216.22" y2="774.99"/>
	<line class="st3" x1="216.58" y1="780.73" x2="219.24" y2="777.65"/>
	<line class="st3" x1="219.72" y1="783.38" x2="222.31" y2="780.25"/>
	<line class="st3" x1="222.92" y1="785.97" x2="225.44" y2="782.78"/>
	<line class="st3" x1="226.16" y1="788.49" x2="228.62" y2="785.25"/>
	<line class="st3" x1="229.46" y1="790.94" x2="231.85" y2="787.65"/>
	<line class="st3" x1="232.81" y1="793.32" x2="235.13" y2="789.98"/>
	<line class="st3" x1="236.21" y1="795.63" x2="238.46" y2="792.24"/>
	<line class="st3" x1="239.66" y1="797.86" x2="241.83" y2="794.43"/>
	<line class="st3" x1="243.15" y1="800.03" x2="245.25" y2="796.55"/>
	<line class="st3" x1="246.68" y1="802.12" x2="248.72" y2="798.6"/>
	<line class="st3" x1="250.26" y1="804.14" x2="252.22" y2="800.58"/>
	<line class="st3" x1="253.89" y1="806.08" x2="255.77" y2="802.48"/>
	<line class="st3" x1="257.55" y1="807.94" x2="259.35" y2="804.31"/>
	<line class="st3" x1="261.25" y1="809.73" x2="262.98" y2="806.06"/>
	<line class="st3" x1="264.98" y1="811.44" x2="266.63" y2="807.73"/>
	<line class="st3" x1="268.75" y1="813.08" x2="270.33" y2="809.33"/>
	<line class="st3" x1="272.56" y1="814.63" x2="274.05" y2="810.85"/>
	<line class="st3" x1="276.39" y1="816.1" x2="277.81" y2="812.29"/>
	<line class="st3" x1="280.26" y1="817.49" x2="281.6" y2="813.66"/>
	<line class="st3" x1="284.15" y1="818.8" x2="285.41" y2="814.94"/>
	<line class="st3" x1="288.08" y1="820.03" x2="289.25" y2="816.14"/>
	<line class="st3" x1="292.02" y1="821.18" x2="293.11" y2="817.27"/>
	<line class="st3" x1="295.99" y1="822.24" x2="297" y2="818.31"/>
	<line class="st3" x1="299.98" y1="823.22" x2="300.91" y2="819.27"/>
	<line class="st3" x1="303.99" y1="824.12" x2="304.83" y2="820.15"/>
	<line class="st3" x1="308.02" y1="824.93" x2="308.78" y2="820.94"/>
	<line class="st3" x1="312.06" y1="825.66" x2="312.74" y2="821.65"/>
	<line class="st3" x1="316.12" y1="826.3" x2="316.71" y2="822.28"/>
	<line class="st3" x1="320.19" y1="826.86" x2="320.7" y2="822.83"/>
	<line class="st3" x1="324.27" y1="827.33" x2="324.7" y2="823.29"/>
	<line class="st3" x1="328.36" y1="827.72" x2="328.7" y2="823.67"/>
	<line class="st3" x1="332.46" y1="828.02" x2="332.72" y2="823.96"/>
	<line class="st3" x1="336.57" y1="828.23" x2="336.74" y2="824.18"/>
	<line class="st3" x1="340.67" y1="828.36" x2="340.76" y2="824.3"/>
	<line class="st3" x1="344.78" y1="828.41" x2="344.78" y2="824.34"/>
	<line class="st3" x1="348.89" y1="828.36" x2="348.81" y2="824.3"/>
	<line class="st3" x1="353" y1="828.23" x2="352.83" y2="824.18"/>
	<line class="st3" x1="357.1" y1="828.02" x2="356.85" y2="823.96"/>
	<line class="st3" x1="361.2" y1="827.72" x2="360.86" y2="823.67"/>
	<line class="st3" x1="365.29" y1="827.33" x2="364.86" y2="823.29"/>
	<line class="st3" x1="369.37" y1="826.86" x2="368.86" y2="822.83"/>
	<line class="st3" x1="373.44" y1="826.3" x2="372.85" y2="822.28"/>
	<line class="st3" x1="377.5" y1="825.66" x2="376.82" y2="821.65"/>
	<line class="st3" x1="381.54" y1="824.93" x2="380.78" y2="820.94"/>
	<line class="st3" x1="385.57" y1="824.12" x2="384.73" y2="820.15"/>
	<line class="st3" x1="389.58" y1="823.22" x2="388.66" y2="819.27"/>
	<line class="st3" x1="393.57" y1="822.24" x2="392.56" y2="818.31"/>
	<line class="st3" x1="397.54" y1="821.18" x2="396.45" y2="817.27"/>
	<line class="st3" x1="401.49" y1="820.03" x2="400.31" y2="816.14"/>
	<line class="st3" x1="405.41" y1="818.8" x2="404.15" y2="814.94"/>
	<line class="st3" x1="409.3" y1="817.49" x2="407.97" y2="813.66"/>
	<line class="st3" x1="413.17" y1="816.1" x2="411.75" y2="812.29"/>
	<line class="st3" x1="417.01" y1="814.63" x2="415.51" y2="810.85"/>
	<line class="st3" x1="420.81" y1="813.08" x2="419.24" y2="809.33"/>
	<line class="st3" x1="424.58" y1="811.44" x2="422.93" y2="807.73"/>
	<line class="st3" x1="428.32" y1="809.73" x2="426.59" y2="806.06"/>
	<line class="st3" x1="432.02" y1="807.94" x2="430.21" y2="804.31"/>
	<line class="st3" x1="435.68" y1="806.08" x2="433.8" y2="802.48"/>
	<line class="st3" x1="439.3" y1="804.14" x2="437.34" y2="800.58"/>
	<line class="st3" x1="442.88" y1="802.12" x2="440.85" y2="798.6"/>
	<line class="st3" x1="446.42" y1="800.03" x2="444.31" y2="796.55"/>
	<line class="st3" x1="449.91" y1="797.86" x2="447.73" y2="794.43"/>
	<line class="st3" x1="453.35" y1="795.63" x2="451.11" y2="792.24"/>
	<line class="st3" x1="456.75" y1="793.32" x2="454.43" y2="789.98"/>
	<line class="st3" x1="460.1" y1="790.94" x2="457.71" y2="787.65"/>
	<line class="st3" x1="463.4" y1="788.49" x2="460.95" y2="785.25"/>
	<line class="st3" x1="466.65" y1="785.97" x2="464.12" y2="782.78"/>
	<line class="st3" x1="469.84" y1="783.38" x2="467.25" y2="780.25"/>
	<line class="st3" x1="472.98" y1="780.73" x2="470.33" y2="777.65"/>
	<line class="st3" x1="476.06" y1="778.01" x2="473.34" y2="774.99"/>
	<line class="st3" x1="479.09" y1="775.23" x2="476.31" y2="772.27"/>
	<line class="st3" x1="482.05" y1="772.39" x2="479.21" y2="769.48"/>
	<line class="st3" x1="484.96" y1="769.48" x2="482.06" y2="766.64"/>
	<line class="st3" x1="487.8" y1="766.52" x2="484.84" y2="763.73"/>
	<line class="st3" x1="490.58" y1="763.49" x2="487.56" y2="760.77"/>
	<line class="st3" x1="493.3" y1="760.41" x2="490.23" y2="757.75"/>
	<line class="st3" x1="495.95" y1="757.27" x2="492.82" y2="754.68"/>
	<line class="st3" x1="498.54" y1="754.08" x2="495.35" y2="751.55"/>
	<line class="st3" x1="501.06" y1="750.83" x2="497.82" y2="748.37"/>
	<line class="st3" x1="503.51" y1="747.53" x2="500.22" y2="745.14"/>
	<line class="st3" x1="505.89" y1="744.18" x2="502.55" y2="741.86"/>
	<line class="st3" x1="508.2" y1="740.78" x2="504.81" y2="738.54"/>
	<line class="st3" x1="510.43" y1="737.34" x2="507" y2="735.16"/>
	<line class="st3" x1="512.6" y1="733.85" x2="509.13" y2="731.74"/>
	<line class="st3" x1="516.71" y1="726.73" x2="513.15" y2="724.77"/>
	<line class="st3" x1="518.65" y1="723.11" x2="515.05" y2="721.23"/>
	<line class="st3" x1="520.52" y1="719.45" x2="516.88" y2="717.64"/>
	<line class="st3" x1="522.3" y1="715.75" x2="518.63" y2="714.02"/>
	<line class="st3" x1="524.01" y1="712.01" x2="520.3" y2="710.36"/>
	<line class="st3" x1="525.65" y1="708.24" x2="521.9" y2="706.67"/>
	<line class="st3" x1="527.2" y1="704.43" x2="523.42" y2="702.94"/>
	<line class="st3" x1="528.67" y1="700.6" x2="524.86" y2="699.18"/>
	<line class="st3" x1="530.06" y1="696.73" x2="526.23" y2="695.4"/>
	<line class="st3" x1="531.37" y1="692.84" x2="527.51" y2="691.58"/>
	<line class="st3" x1="532.6" y1="688.92" x2="528.71" y2="687.74"/>
	<line class="st3" x1="533.75" y1="684.97" x2="529.84" y2="683.88"/>
	<line class="st3" x1="534.81" y1="681" x2="530.88" y2="679.99"/>
	<line class="st3" x1="535.79" y1="677.01" x2="531.84" y2="676.08"/>
	<line class="st3" x1="536.69" y1="673" x2="532.72" y2="672.16"/>
	<line class="st3" x1="537.5" y1="668.97" x2="533.51" y2="668.21"/>
	<line class="st3" x1="538.23" y1="664.93" x2="534.22" y2="664.25"/>
	<line class="st3" x1="538.87" y1="660.87" x2="534.85" y2="660.28"/>
	<line class="st3" x1="539.43" y1="656.8" x2="535.4" y2="656.29"/>
	<line class="st3" x1="539.9" y1="652.72" x2="535.86" y2="652.29"/>
	<line class="st3" x1="540.29" y1="648.63" x2="536.24" y2="648.29"/>
	<line class="st3" x1="540.59" y1="644.53" x2="536.54" y2="644.28"/>
	<line class="st3" x1="540.8" y1="640.43" x2="536.75" y2="640.26"/>
	<line class="st3" x1="540.93" y1="636.32" x2="536.87" y2="636.23"/>
	<line class="st3" x1="540.98" y1="632.21" x2="536.91" y2="632.21"/>
	<line class="st3" x1="540.93" y1="628.1" x2="536.87" y2="628.19"/>
	<line class="st3" x1="540.8" y1="624" x2="536.75" y2="624.17"/>
	<line class="st3" x1="540.59" y1="619.89" x2="536.54" y2="620.15"/>
	<line class="st3" x1="540.29" y1="615.79" x2="536.24" y2="616.13"/>
	<line class="st3" x1="539.9" y1="611.7" x2="535.86" y2="612.13"/>
	<line class="st3" x1="539.43" y1="607.62" x2="535.4" y2="608.13"/>
	<line class="st3" x1="538.87" y1="603.55" x2="534.85" y2="604.14"/>
	<line class="st3" x1="538.23" y1="599.49" x2="534.22" y2="600.17"/>
	<line class="st3" x1="537.5" y1="595.45" x2="533.51" y2="596.21"/>
	<line class="st3" x1="536.69" y1="591.42" x2="532.72" y2="592.26"/>
	<line class="st3" x1="535.79" y1="587.41" x2="531.84" y2="588.34"/>
	<line class="st3" x1="534.81" y1="583.42" x2="530.88" y2="584.43"/>
	<line class="st3" x1="533.75" y1="579.45" x2="529.84" y2="580.54"/>
	<line class="st3" x1="532.6" y1="575.5" x2="528.71" y2="576.68"/>
	<line class="st3" x1="531.37" y1="571.58" x2="527.51" y2="572.84"/>
	<line class="st3" x1="530.06" y1="567.69" x2="526.23" y2="569.02"/>
	<line class="st3" x1="528.67" y1="563.82" x2="524.86" y2="565.24"/>
	<line class="st3" x1="527.2" y1="559.99" x2="523.42" y2="561.48"/>
	<line class="st3" x1="525.65" y1="556.18" x2="521.9" y2="557.76"/>
	<line class="st3" x1="524.01" y1="552.41" x2="520.3" y2="554.06"/>
	<line class="st3" x1="522.3" y1="548.68" x2="518.63" y2="550.4"/>
	<line class="st3" x1="520.52" y1="544.98" x2="516.88" y2="546.78"/>
	<line class="st3" x1="518.65" y1="541.31" x2="515.05" y2="543.2"/>
	<line class="st3" x1="516.71" y1="537.69" x2="513.15" y2="539.65"/>
	<line class="st3" x1="514.69" y1="534.11" x2="511.17" y2="536.14"/>
	<line class="st3" x1="512.6" y1="530.58" x2="509.13" y2="532.68"/>
	<line class="st3" x1="510.43" y1="527.08" x2="507" y2="529.26"/>
	<line class="st3" x1="508.2" y1="523.64" x2="504.81" y2="525.89"/>
	<line class="st3" x1="505.89" y1="520.24" x2="502.55" y2="522.56"/>
	<line class="st3" x1="503.51" y1="516.89" x2="500.22" y2="519.28"/>
	<line class="st3" x1="501.06" y1="513.59" x2="497.82" y2="516.05"/>
	<line class="st3" x1="498.54" y1="510.35" x2="495.35" y2="512.87"/>
	<line class="st3" x1="495.95" y1="507.15" x2="492.82" y2="509.74"/>
	<line class="st3" x1="493.3" y1="504.01" x2="490.23" y2="506.67"/>
	<line class="st3" x1="490.58" y1="500.93" x2="487.56" y2="503.65"/>
	<line class="st3" x1="487.8" y1="497.91" x2="484.84" y2="500.69"/>
	<line class="st3" x1="484.96" y1="494.94" x2="482.06" y2="497.78"/>
	<line class="st3" x1="482.05" y1="492.04" x2="479.21" y2="494.94"/>
	<line class="st3" x1="479.09" y1="489.19" x2="476.31" y2="492.15"/>
	<line class="st3" x1="476.06" y1="486.41" x2="473.34" y2="489.43"/>
	<line class="st3" x1="472.98" y1="483.69" x2="470.33" y2="486.77"/>
	<line class="st3" x1="469.84" y1="481.04" x2="467.25" y2="484.17"/>
	<line class="st3" x1="466.65" y1="478.45" x2="464.12" y2="481.64"/>
	<line class="st3" x1="463.4" y1="475.94" x2="460.95" y2="479.17"/>
	<line class="st3" x1="460.1" y1="473.49" x2="457.71" y2="476.77"/>
	<line class="st3" x1="456.75" y1="471.11" x2="454.43" y2="474.44"/>
	<line class="st3" x1="453.35" y1="468.8" x2="451.11" y2="472.18"/>
	<line class="st3" x1="449.91" y1="466.56" x2="447.73" y2="469.99"/>
	<line class="st3" x1="446.42" y1="464.39" x2="444.31" y2="467.87"/>
	<line class="st3" x1="442.88" y1="462.3" x2="440.85" y2="465.82"/>
	<line class="st3" x1="439.3" y1="460.28" x2="437.34" y2="463.84"/>
	<line class="st3" x1="435.68" y1="458.34" x2="433.8" y2="461.94"/>
	<line class="st3" x1="432.02" y1="456.48" x2="430.21" y2="460.12"/>
	<line class="st3" x1="428.32" y1="454.69" x2="426.59" y2="458.36"/>
	<line class="st3" x1="424.58" y1="452.98" x2="422.93" y2="456.69"/>
	<line class="st3" x1="420.81" y1="451.35" x2="419.24" y2="455.09"/>
	<line class="st3" x1="417.01" y1="449.79" x2="415.51" y2="453.57"/>
	<line class="st3" x1="413.17" y1="448.32" x2="411.75" y2="452.13"/>
	<line class="st3" x1="409.3" y1="446.93" x2="407.97" y2="450.77"/>
	<line class="st3" x1="405.41" y1="445.62" x2="404.15" y2="449.48"/>
	<line class="st3" x1="401.49" y1="444.39" x2="400.31" y2="448.28"/>
	<line class="st3" x1="397.54" y1="443.24" x2="396.45" y2="447.16"/>
	<line class="st3" x1="393.57" y1="442.18" x2="392.56" y2="446.11"/>
	<line class="st3" x1="389.58" y1="441.2" x2="388.66" y2="445.15"/>
	<line class="st3" x1="385.57" y1="440.3" x2="384.73" y2="444.28"/>
	<line class="st3" x1="381.54" y1="439.49" x2="380.78" y2="443.48"/>
	<line class="st3" x1="377.5" y1="438.76" x2="376.82" y2="442.77"/>
	<line class="st3" x1="373.44" y1="438.12" x2="372.85" y2="442.14"/>
	<line class="st3" x1="369.37" y1="437.56" x2="368.86" y2="441.59"/>
	<line class="st3" x1="365.29" y1="437.09" x2="364.86" y2="441.13"/>
	<line class="st3" x1="361.2" y1="436.7" x2="360.86" y2="440.75"/>
	<line class="st3" x1="357.1" y1="436.4" x2="356.85" y2="440.46"/>
	<line class="st3" x1="353" y1="436.19" x2="352.83" y2="440.25"/>
	<line class="st3" x1="348.89" y1="436.06" x2="348.81" y2="440.12"/>
	<line class="st3" x1="324.27" y1="437.09" x2="326.28" y2="456.18"/>
	<line class="st3" x1="303.99" y1="440.3" x2="307.98" y2="459.08"/>
	<line class="st3" x1="284.15" y1="445.62" x2="290.09" y2="463.88"/>
	<line class="st3" x1="264.98" y1="452.98" x2="272.79" y2="470.52"/>
	<line class="st3" x1="229.46" y1="473.49" x2="240.74" y2="489.02"/>
	<line class="st3" x1="213.5" y1="486.41" x2="226.35" y2="500.68"/>
	<line class="st3" x1="198.98" y1="500.93" x2="213.25" y2="513.78"/>
	<line class="st3" x1="186.06" y1="516.89" x2="201.59" y2="528.17"/>
	<line class="st3" x1="165.55" y1="552.41" x2="183.09" y2="560.22"/>
	<line class="st3" x1="158.19" y1="571.58" x2="176.45" y2="577.52"/>
	<line class="st3" x1="152.87" y1="591.42" x2="171.65" y2="595.41"/>
	<line class="st3" x1="149.66" y1="611.7" x2="168.75" y2="613.71"/>
	<line class="st3" x1="149.66" y1="652.72" x2="168.75" y2="650.71"/>
	<line class="st3" x1="152.87" y1="673" x2="171.65" y2="669.01"/>
	<line class="st3" x1="158.19" y1="692.84" x2="176.45" y2="686.91"/>
	<line class="st3" x1="165.55" y1="712.01" x2="183.09" y2="704.2"/>
	<line class="st3" x1="186.06" y1="747.53" x2="201.59" y2="736.25"/>
	<line class="st3" x1="198.98" y1="763.49" x2="213.25" y2="750.65"/>
	<line class="st3" x1="213.5" y1="778.01" x2="226.35" y2="763.75"/>
	<line class="st3" x1="229.46" y1="790.94" x2="240.74" y2="775.41"/>
	<line class="st3" x1="264.98" y1="811.44" x2="272.79" y2="793.91"/>
	<line class="st3" x1="284.15" y1="818.8" x2="290.09" y2="800.55"/>
	<line class="st3" x1="303.99" y1="824.12" x2="307.98" y2="805.34"/>
	<line class="st3" x1="324.27" y1="827.33" x2="326.28" y2="808.24"/>
	<line class="st3" x1="365.29" y1="827.33" x2="363.28" y2="808.24"/>
	<line class="st3" x1="385.57" y1="824.12" x2="381.58" y2="805.34"/>
	<line class="st3" x1="405.41" y1="818.8" x2="399.48" y2="800.55"/>
	<line class="st3" x1="424.58" y1="811.44" x2="416.77" y2="793.91"/>
	<line class="st3" x1="460.1" y1="790.94" x2="448.82" y2="775.41"/>
	<line class="st3" x1="476.06" y1="778.01" x2="463.22" y2="763.75"/>
	<line class="st3" x1="490.58" y1="763.49" x2="476.32" y2="750.65"/>
	<line class="st3" x1="503.51" y1="747.53" x2="487.98" y2="736.25"/>
	<line class="st3" x1="524.01" y1="712.01" x2="506.48" y2="704.2"/>
	<line class="st3" x1="531.37" y1="692.84" x2="513.12" y2="686.91"/>
	<line class="st3" x1="536.69" y1="673" x2="517.91" y2="669.01"/>
	<line class="st3" x1="539.9" y1="652.72" x2="520.81" y2="650.71"/>
	<line class="st3" x1="539.9" y1="611.7" x2="520.81" y2="613.71"/>
	<line class="st3" x1="536.69" y1="591.42" x2="517.91" y2="595.41"/>
	<line class="st3" x1="531.37" y1="571.58" x2="513.12" y2="577.52"/>
	<line class="st3" x1="524.01" y1="552.41" x2="506.48" y2="560.22"/>
	<line class="st3" x1="503.51" y1="516.89" x2="487.98" y2="528.17"/>
	<line class="st3" x1="490.58" y1="500.93" x2="476.32" y2="513.78"/>
	<line class="st3" x1="476.06" y1="486.41" x2="463.22" y2="500.68"/>
	<line class="st3" x1="460.1" y1="473.49" x2="448.82" y2="489.02"/>
	<line class="st3" x1="424.58" y1="452.98" x2="416.77" y2="470.52"/>
	<line class="st3" x1="405.41" y1="445.62" x2="399.48" y2="463.88"/>
	<line class="st3" x1="385.57" y1="440.3" x2="381.58" y2="459.08"/>
	<line class="st3" x1="365.29" y1="437.09" x2="363.28" y2="456.18"/>
	<path class="st3" d="M285.18,598.54c6.53,9.77,10.34,21.51,10.34,34.14c0,33.97-27.54,61.51-61.51,61.51s-61.51-27.54-61.51-61.51
		c0-33.97,27.54-61.51,61.51-61.51c5.17,0,10.19,0.64,14.98,1.84"/>
	<line class="st4" x1="234.78" y1="572.82" x2="234.78" y2="579.69"/>
	<line class="st4" x1="181.79" y1="661.95" x2="187.73" y2="658.52"/>
	<line class="st4" x1="285.47" y1="663.28" x2="279.52" y2="659.84"/>
	<line class="st0" x1="204.74" y1="580.46" x2="210.18" y2="589.87"/>
	<line class="st0" x1="182.55" y1="602.09" x2="191.96" y2="607.52"/>
	<line class="st0" x1="174.15" y1="631.92" x2="185.01" y2="631.92"/>
	<line class="st0" x1="203.42" y1="684.14" x2="208.85" y2="674.73"/>
	<line class="st0" x1="233.24" y1="692.54" x2="233.24" y2="681.68"/>
	<line class="st0" x1="263.28" y1="684.91" x2="257.84" y2="675.5"/>
	<line class="st0" x1="293.87" y1="633.45" x2="283.01" y2="633.45"/>
	<line class="st0" x1="286.23" y1="603.42" x2="276.83" y2="608.85"/>
	<line class="st0" x1="263.36" y1="583.39" x2="259.17" y2="590.63"/>
	<g>
		<path class="st5" d="M221.61,584.48c0-1.2,1.12-2.41,5.38-2.41c4.26,0,5.3,1.22,5.3,2.41v0.35c0,0.21-0.15,0.3-0.48,0.3h-1.48
			c-0.36,0-0.46-0.1-0.46-0.3v-0.13c0-0.77-0.64-1.33-2.88-1.33s-2.91,0.54-2.91,1.33v2.5c0.59-0.4,1.63-0.67,3.26-0.67
			c3.9,0,5.13,1.15,5.13,2.47v1.76c0,1.32-1.17,2.47-5.43,2.47c-4.26,0-5.43-1.15-5.43-2.47V584.48z M230,589.23
			c0-0.88-0.69-1.4-2.96-1.4c-2.14,0-2.96,0.46-2.96,1.27v1.46c0,0.87,0.69,1.38,2.96,1.38c2.27,0,2.96-0.51,2.96-1.38V589.23z"/>
		<path class="st5" d="M235.49,584.54c0-1.32,1.27-2.47,5.53-2.47c4.26,0,5.56,1.15,5.56,2.47v6.22c0,1.32-1.3,2.47-5.56,2.47
			c-4.26,0-5.53-1.15-5.53-2.47V584.54z M244.08,584.8c0-0.87-0.79-1.39-3.06-1.39c-2.27,0-3.03,0.53-3.03,1.39v5.71
			c0,0.87,0.77,1.39,3.03,1.39c2.27,0,3.06-0.53,3.06-1.39V584.8z"/>
	</g>
	<g>
		<path class="st5" d="M201.47,652.82l-2.52-0.06l0.14-6.33l-2.27-0.05l-8.25,6.34l-0.02,0.88l8.39,0.19l-0.06,2.82l1.99,0.04
			l0.06-2.82l2.52,0.06L201.47,652.82z M190.91,652.58l4.46-3.36c0.55-0.49,1.14-0.97,1.69-1.45l0.13,0
			c-0.06,0.56-0.13,1.25-0.17,1.81l-0.07,3.14L190.91,652.58z"/>
		<path class="st5" d="M204.46,648.22c0.03-1.32,1.33-2.44,5.59-2.34c4.26,0.1,5.53,1.28,5.5,2.59l-0.14,6.22
			c-0.03,1.32-1.36,2.44-5.61,2.34c-4.26-0.1-5.51-1.28-5.48-2.59L204.46,648.22z M213.04,648.67c0.02-0.87-0.76-1.41-3.03-1.46
			c-2.27-0.05-3.05,0.46-3.07,1.33l-0.13,5.71c-0.02,0.87,0.73,1.41,3,1.46c2.27,0.05,3.07-0.46,3.09-1.33L213.04,648.67z"/>
	</g>
	<g>
		<path class="st5" d="M262.52,655.29c0.33,0.01,0.48,0.08,0.47,0.31l-0.03,0.74c-0.01,0.22-0.16,0.3-0.5,0.29l-9.76-0.36
			c-0.33-0.01-0.48-0.1-0.47-0.32l0.11-3.04c0.03-0.95,1.24-1.22,1.99-1.37l4.98-0.97c0.49-0.09,1.31-0.32,1.34-0.99l0.05-1.33
			c0.03-0.88-0.71-1.42-2.98-1.51c-2.24-0.08-3.03,0.4-3.06,1.28l-0.03,0.69c-0.01,0.22-0.14,0.32-0.47,0.3l-1.48-0.05
			c-0.36-0.01-0.48-0.11-0.47-0.34l0.03-0.93c0.05-1.31,1.26-2.43,5.52-2.27c4.25,0.16,5.46,1.36,5.41,2.67l-0.06,1.54
			c-0.05,1.41-1.52,1.92-2.42,2.09l-4.37,0.82c-0.67,0.12-1.49,0.3-1.51,0.94l-0.06,1.54L262.52,655.29z"/>
		<path class="st5" d="M266.12,648.18c0.05-1.31,1.36-2.42,5.62-2.27c4.26,0.16,5.51,1.36,5.46,2.67l-0.23,6.22
			c-0.05,1.32-1.39,2.42-5.65,2.27c-4.25-0.16-5.49-1.36-5.44-2.67L266.12,648.18z M274.7,648.75c0.03-0.87-0.74-1.42-3.01-1.5
			c-2.27-0.08-3.05,0.42-3.08,1.28l-0.21,5.71c-0.03,0.86,0.71,1.42,2.98,1.5c2.27,0.08,3.08-0.42,3.11-1.28L274.7,648.75z"/>
	</g>
	<path class="st3" d="M449.59,693.92c-18.19-1.71-34.08-11.34-44.18-25.4"/>
	<path class="st3" d="M402.9,664.72c-5.7-9.33-8.99-20.3-8.99-32.04c0-33.97,27.54-61.51,61.51-61.51s61.51,27.54,61.51,61.51
		s-27.54,61.51-61.51,61.51c-0.58,0-1.15-0.01-1.72-0.02"/>
	<g>
		<path class="st5" d="M453.18,589.42c-0.32,0.3-0.84,0.52-1.67,0.66c0.79,0.14,1.32,0.35,1.67,0.61 M453.18,594.87
			c-0.72,0.64-2.19,1.08-4.86,1.08c-4.28,0-5.51-1.14-5.51-2.45v-0.42c0-0.21,0.13-0.3,0.46-0.3h1.5c0.33,0,0.46,0.1,0.46,0.3v0.21
			c0,0.87,0.84,1.36,3.06,1.36c2.22,0,3.03-0.5,3.03-1.36v-1.17c0-0.88-0.69-1.35-2.98-1.35h-2.14c-0.36,0-0.48-0.08-0.48-0.3v-0.69
			c0-0.22,0.13-0.3,0.48-0.3h1.96c2.27,0,2.96-0.46,2.96-1.35v-0.67c0-0.87-0.66-1.36-2.86-1.36c-2.22,0-2.91,0.5-2.91,1.36v0.21
			c0,0.21-0.15,0.3-0.48,0.3h-1.48c-0.36,0-0.46-0.1-0.46-0.3v-0.42c0-1.31,1.07-2.45,5.35-2.45c2.85,0,4.26,0.5,4.89,1.22"/>
		<path class="st5" d="M459.18,585.11c0.81-0.21,1.87-0.33,3.24-0.33c4.26,0,5.56,1.15,5.56,2.47v6.22c0,1.32-1.3,2.47-5.56,2.47
			c-1.37,0-2.43-0.12-3.24-0.33 M465.48,587.51c0-0.87-0.79-1.39-3.06-1.39c-2.27,0-3.03,0.53-3.03,1.39v5.71
			c0,0.87,0.77,1.39,3.03,1.39c2.27,0,3.06-0.53,3.06-1.39V587.51z"/>
	</g>
	<g>
		<path class="st5" d="M423.3,657.46c0.33,0.01,0.48,0.08,0.48,0.3l-0.02,0.74c0,0.22-0.16,0.3-0.49,0.29l-9.76-0.22
			c-0.33-0.01-0.48-0.09-0.48-0.32l0.07-3.05c0.02-0.95,1.23-1.24,1.97-1.4l4.97-1.04c0.49-0.1,1.31-0.34,1.32-1.01l0.03-1.33
			c0.02-0.88-0.73-1.41-3-1.46c-2.24-0.05-3.02,0.45-3.04,1.33l-0.02,0.69c0,0.22-0.13,0.32-0.47,0.31l-1.48-0.03
			c-0.36-0.01-0.48-0.11-0.48-0.33l0.02-0.93c0.03-1.32,1.23-2.44,5.49-2.35c4.26,0.1,5.48,1.28,5.45,2.59l-0.04,1.54
			c-0.03,1.41-1.5,1.94-2.39,2.13l-4.36,0.88c-0.67,0.13-1.49,0.32-1.5,0.96l-0.03,1.54L423.3,657.46z"/>
		<path class="st5" d="M426.81,650.3c0.03-1.32,1.33-2.44,5.59-2.35c4.26,0.1,5.53,1.28,5.5,2.6l-0.14,6.22
			c-0.03,1.32-1.36,2.44-5.61,2.34c-4.26-0.1-5.51-1.28-5.48-2.59L426.81,650.3z M435.39,650.75c0.02-0.87-0.76-1.41-3.03-1.46
			c-2.27-0.05-3.05,0.46-3.07,1.33l-0.13,5.71c-0.02,0.87,0.73,1.41,3,1.46c2.27,0.05,3.07-0.46,3.09-1.33L435.39,650.75z"/>
	</g>
	<g>
		<path class="st5" d="M476.9,650.78l0.06-1.56c0.83,0.03,1.89-0.45,3.17-1.45l2.49,0.09l-0.4,10.95l-2.49-0.09l0.33-9
			C479.03,650.47,477.97,650.82,476.9,650.78z"/>
		<path class="st5" d="M486.49,650.4c0.05-1.31,1.36-2.42,5.62-2.27c4.26,0.16,5.51,1.36,5.46,2.67l-0.23,6.22
			c-0.05,1.32-1.39,2.42-5.65,2.26c-4.25-0.16-5.49-1.36-5.44-2.67L486.49,650.4z M495.07,650.97c0.03-0.87-0.74-1.42-3.01-1.51
			c-2.27-0.08-3.05,0.42-3.08,1.28l-0.21,5.71c-0.03,0.86,0.71,1.42,2.98,1.5c2.27,0.08,3.08-0.42,3.11-1.28L495.07,650.97z"/>
	</g>
	<g>
		<path class="st0" d="M459.18,624.26v-42.1l-3-7.55l-3,7.55v41.57c-4.01,1-6.99,4.62-6.99,8.94c0,5.1,4.13,9.23,9.23,9.23
			s9.23-4.13,9.23-9.23C464.64,628.93,462.4,625.7,459.18,624.26z"/>
		<circle class="st3" cx="455.41" cy="632.68" r="6.46"/>
		<circle cx="455.41" cy="632.68" r="1.94"/>
	</g>
	<circle class="st3" cx="344.78" cy="745.8" r="61.51"/>
	<g>
		<path class="st2" d="M302.87,684.63c0.9-0.67,2-1.41,3.25-2.14c2.27-1.32,4.1-1.89,5.58-1.8c1.5,0.08,2.73,0.72,3.55,2.13
			c0.83,1.42,0.9,2.95,0.22,4.42c-0.67,1.48-2.29,3.03-4.67,4.41c-1.12,0.66-2.09,1.17-2.92,1.57L302.87,684.63z M308.96,691.43
			c0.43-0.18,1.02-0.51,1.63-0.87c3.37-1.97,4.42-4.39,3.04-6.74c-1.19-2.07-3.58-2.43-6.92-0.48c-0.82,0.48-1.4,0.89-1.78,1.2
			L308.96,691.43z"/>
		<path class="st2" d="M320.55,683.1l-0.36,3.49l-1.79,0.61l1.27-11.13l2.09-0.72l7.85,8l-1.85,0.63l-2.46-2.52L320.55,683.1z
			 M324.61,680.63l-2.26-2.3c-0.51-0.52-0.91-1.02-1.29-1.51l-0.04,0.01c0,0.64-0.02,1.29-0.08,1.96l-0.36,3.22L324.61,680.63z"/>
		<path class="st2" d="M332.78,682.94l-0.74-4.22l-5.41-4.96l2.05-0.36l2.45,2.4c0.67,0.66,1.19,1.19,1.75,1.81l0.04-0.01
			c0.28-0.72,0.64-1.45,1.05-2.3l1.53-3.1l2.05-0.36l-3.68,6.53l0.74,4.24L332.78,682.94z"/>
		<path class="st2" d="M343.99,672.81l-4.3-0.07l0.02-1.11l10.48,0.17l-0.02,1.11l-4.33-0.07l-0.15,9l-1.85-0.03L343.99,672.81z"/>
		<path class="st2" d="M363.45,678.91c-0.62,3.43-3.86,4.72-7.41,4.08c-3.68-0.66-5.9-3.17-5.36-6.18c0.57-3.16,3.69-4.73,7.41-4.06
			C361.9,673.43,363.98,675.95,363.45,678.91z M352.61,677.12c-0.38,2.13,0.89,4.32,3.72,4.83c2.85,0.51,4.8-1.07,5.21-3.33
			c0.36-1.98-0.72-4.31-3.72-4.85C354.84,673.24,353,674.94,352.61,677.12z"/>
		<path class="st2" d="M364.28,684.62l3.86-9.35l1.84,0.76l2.24,6.46c0.52,1.5,0.87,2.79,1.09,4.01l0.04,0
			c0.36-1.31,0.79-2.47,1.39-3.92l1.61-3.91l1.59,0.66l-3.86,9.35l-1.71-0.71l-2.2-6.46c-0.48-1.42-0.92-2.84-1.16-4.13l-0.06-0.01
			c-0.39,1.22-0.81,2.36-1.46,3.91l-1.65,3.99L364.28,684.62z"/>
		<path class="st2" d="M380.14,688.64l-3,1.82l-1.57-1.06l9.64-5.69l1.83,1.23l-1.64,11.08l-1.62-1.09l0.52-3.48L380.14,688.64z
			 M384.56,690.39l0.48-3.19c0.11-0.72,0.27-1.34,0.42-1.94l-0.03-0.02c-0.51,0.38-1.04,0.76-1.61,1.12l-2.78,1.65L384.56,690.39z"
			/>
	</g>
	<g>
		<g>
			<path class="st5" d="M339.87,705.58h-2.98v-9.25l-2.39,0.76v-1.97l2.64-0.92h2.73V705.58z"/>
			<path class="st5" d="M347.4,694.16c0.49-0.07,1.04-0.1,1.63-0.1c1.73,0,3.04,0.28,3.94,0.85c0.9,0.56,1.35,1.36,1.35,2.39v5.17
				c0,1.02-0.45,1.82-1.36,2.38c-0.9,0.57-2.22,0.85-3.93,0.85c-0.36,0-0.71-0.01-1.03-0.04 M347.96,703.79
				c0.3,0.08,0.65,0.12,1.06,0.12c0.8,0,1.38-0.15,1.76-0.44c0.37-0.29,0.56-0.72,0.56-1.27v-4.63c0-0.55-0.19-0.98-0.56-1.27
				c-0.37-0.29-0.96-0.44-1.76-0.44c-0.46,0-0.86,0.05-1.18,0.15"/>
		</g>
		<g>
			<path class="st5" d="M339.4,787.27c0-1.2,1.12-2.41,5.38-2.41s5.3,1.22,5.3,2.41v0.35c0,0.21-0.15,0.3-0.48,0.3h-1.48
				c-0.36,0-0.46-0.1-0.46-0.3v-0.13c0-0.77-0.64-1.33-2.88-1.33c-2.24,0-2.91,0.54-2.91,1.33v2.5c0.59-0.4,1.63-0.67,3.26-0.67
				c3.9,0,5.13,1.15,5.13,2.47v1.76c0,1.32-1.17,2.47-5.43,2.47s-5.43-1.15-5.43-2.47V787.27z M347.79,792.01
				c0-0.88-0.69-1.4-2.96-1.4c-2.14,0-2.96,0.46-2.96,1.27v1.46c0,0.87,0.69,1.38,2.96,1.38s2.96-0.51,2.96-1.38V792.01z"/>
		</g>
	</g>
	<g>
		<g>
			<path class="st5" d="M304.7,748.34c0,1.2-1.1,2.41-5.35,2.41c-4.26,0-5.3-1.22-5.3-2.41v-0.35c0-0.21,0.13-0.3,0.48-0.3h1.48
				c0.33,0,0.46,0.1,0.46,0.3v0.13c0,0.77,0.61,1.33,2.88,1.33c2.24,0,2.88-0.54,2.88-1.33v-2.49c-0.59,0.4-1.61,0.66-3.26,0.66
				c-3.88,0-5.13-1.15-5.13-2.47v-1.76c0-1.32,1.17-2.47,5.46-2.47c4.26,0,5.41,1.15,5.41,2.47V748.34z M302.23,742.26
				c0-0.87-0.69-1.38-2.93-1.38c-2.27,0-2.98,0.51-2.98,1.38v1.33c0,0.88,0.71,1.4,2.98,1.4c2.17,0,2.93-0.48,2.93-1.33V742.26z"/>
		</g>
		<g>
			<path class="st5" d="M390.01,744.27c2.27,0,2.96-0.46,2.96-1.35v-0.67c0-0.87-0.66-1.36-2.86-1.36c-2.22,0-2.91,0.5-2.91,1.36
				v0.21c0,0.21-0.15,0.3-0.48,0.3h-1.48c-0.36,0-0.46-0.1-0.46-0.3v-0.42c0-1.31,1.07-2.45,5.35-2.45c4.23,0,5.3,1.11,5.3,2.41
				v1.15c0,0.87-0.46,1.44-2.09,1.73c1.79,0.32,2.27,0.98,2.27,1.84v1.62c0,1.3-1.2,2.41-5.46,2.41c-4.28,0-5.51-1.14-5.51-2.45
				v-0.42c0-0.21,0.13-0.3,0.46-0.3h1.5c0.33,0,0.46,0.1,0.46,0.3v0.21c0,0.87,0.84,1.36,3.06,1.36c2.22,0,3.03-0.5,3.03-1.36v-1.17
				c0-0.88-0.69-1.35-2.98-1.35h-2.14c-0.36,0-0.48-0.08-0.48-0.3v-0.69c0-0.22,0.13-0.3,0.48-0.3H390.01z"/>
		</g>
	</g>
	<g>
		<path class="st0" d="M348.43,737.33l-0.59-42.09l-3.1-7.51l-2.89,7.59l0.58,41.56c-4,1.06-6.93,4.72-6.87,9.04
			c0.07,5.1,4.26,9.17,9.35,9.1c5.1-0.07,9.17-4.26,9.1-9.35C353.95,741.92,351.67,738.73,348.43,737.33z"/>
		<circle class="st3" cx="344.78" cy="745.8" r="6.46"/>
		<circle cx="344.78" cy="745.8" r="1.94"/>
	</g>
	<g>
		<path class="st0" d="M230.28,624.25l-31.28-28.17l-7.62-2.82l3.6,7.28l30.89,27.81c-1.94,3.65-1.25,8.29,1.97,11.18
			c3.79,3.41,9.62,3.1,13.03-0.68c3.41-3.79,3.1-9.62-0.68-13.03C237.4,623.31,233.5,622.83,230.28,624.25z"/>
		<circle class="st3" cx="234.01" cy="632.68" r="6.46"/>
		<circle cx="234.01" cy="632.68" r="1.94"/>
	</g>
	<g>
		<path class="st2" d="M338.8,400.94c-3.46,0-5.2-2.44-5.2-7.32v-6.3c0-4.98,1.73-7.47,5.2-7.47c3.15,0,4.83,1.96,5.05,5.89
			l-2.39,0.56c0-2.34-0.89-3.52-2.66-3.52c-1.85,0-2.78,1.51-2.78,4.54v1.76c0.86-1.07,1.91-1.61,3.14-1.61
			c3.1,0,4.67,2.15,4.71,6.45C343.83,398.6,342.14,400.94,338.8,400.94z M339.16,390.39c-1.14,0-2.18,0.49-3.14,1.46v1.76
			c0,2.93,0.93,4.39,2.78,4.39c1.73,0,2.62-1.32,2.66-3.96C341.46,391.61,340.69,390.39,339.16,390.39z"/>
		<path class="st2" d="M355.96,386.91v6.71c0,4.88-1.61,7.32-4.83,7.32s-4.83-2.44-4.83-7.32v-6.71c0-4.71,1.61-7.06,4.83-7.06
			S355.96,382.2,355.96,386.91z M351.12,382.78c-1.61,0-2.42,1.38-2.42,4.13v6.71c0,2.93,0.8,4.39,2.42,4.39
			c1.61,0,2.42-1.46,2.42-4.39v-6.71C353.54,384.15,352.73,382.78,351.12,382.78z"/>
	</g>
	<g>
		<path class="st2" d="M476.22,434.13c0-2.44-0.81-3.66-2.42-3.66c-1.53,0-2.5,0.83-2.9,2.49l-2.29-0.73l0.6-11.28h8.82v2.93h-6.4
			l-0.36,5.13c0.48-0.98,1.33-1.46,2.54-1.46c3.22,0,4.83,2.2,4.83,6.59v0.73c-0.02,4.59-1.75,6.88-5.21,6.88
			c-3.17,0-4.86-1.95-5.06-5.86l2.4-0.44c0,2.25,0.89,3.37,2.66,3.37c1.84,0,2.77-1.32,2.79-3.96V434.13z"/>
		<path class="st2" d="M488.91,434.13c0-2.44-0.81-3.66-2.42-3.66c-1.53,0-2.5,0.83-2.9,2.49l-2.29-0.73l0.6-11.28h8.82v2.93h-6.4
			l-0.36,5.13c0.48-0.98,1.33-1.46,2.54-1.46c3.22,0,4.83,2.2,4.83,6.59v0.73c-0.02,4.59-1.75,6.88-5.21,6.88
			c-3.17,0-4.86-1.95-5.06-5.86l2.4-0.44c0,2.25,0.89,3.37,2.66,3.37c1.84,0,2.77-1.32,2.79-3.96V434.13z"/>
	</g>
	<g>
		<path class="st2" d="M573.43,564.26c0-2.44-0.81-3.66-2.42-3.66c-1.53,0-2.5,0.83-2.9,2.49l-2.29-0.73l0.6-11.28h8.82v2.93h-6.4
			l-0.36,5.13c0.48-0.98,1.33-1.46,2.54-1.46c3.22,0,4.83,2.2,4.83,6.59v0.73c-0.02,4.59-1.75,6.88-5.21,6.88
			c-3.17,0-4.86-1.95-5.06-5.86l2.4-0.44c0,2.25,0.89,3.37,2.66,3.37c1.84,0,2.77-1.32,2.79-3.96V564.26z"/>
		<path class="st2" d="M587.93,557.84v6.71c0,4.88-1.61,7.32-4.83,7.32s-4.83-2.44-4.83-7.32v-6.71c0-4.71,1.61-7.06,4.83-7.06
			S587.93,553.14,587.93,557.84z M583.1,553.71c-1.61,0-2.42,1.38-2.42,4.13v6.71c0,2.93,0.8,4.39,2.42,4.39
			c1.61,0,2.42-1.46,2.42-4.39v-6.71C585.51,555.09,584.71,553.71,583.1,553.71z"/>
	</g>
	<g>
		<path class="st2" d="M227.87,429.38c-3.46,0-5.2-2.44-5.2-7.32v-6.3c0-4.98,1.73-7.47,5.2-7.47c3.15,0,4.83,1.96,5.05,5.89
			l-2.39,0.56c0-2.34-0.89-3.52-2.66-3.52c-1.85,0-2.78,1.51-2.78,4.54v1.76c0.86-1.07,1.91-1.61,3.14-1.61
			c3.1,0,4.67,2.15,4.71,6.45C232.89,427.03,231.2,429.38,227.87,429.38z M228.23,418.83c-1.14,0-2.18,0.49-3.14,1.46v1.76
			c0,2.93,0.93,4.39,2.78,4.39c1.73,0,2.62-1.32,2.66-3.96C230.53,420.05,229.76,418.83,228.23,418.83z"/>
		<path class="st2" d="M243.21,421.76c0-2.44-0.81-3.66-2.42-3.66c-1.53,0-2.5,0.83-2.9,2.49l-2.29-0.73l0.6-11.28h8.82v2.93h-6.4
			l-0.36,5.13c0.48-0.98,1.33-1.46,2.54-1.46c3.22,0,4.83,2.2,4.83,6.59v0.73c-0.02,4.59-1.75,6.88-5.21,6.88
			c-3.17,0-4.86-1.95-5.06-5.86l2.4-0.44c0,2.25,0.89,3.37,2.66,3.37c1.84,0,2.77-1.32,2.79-3.96V421.76z"/>
	</g>
	<g>
		<path class="st2" d="M157.87,469.08V472l-5.68,18.75l-2.17-1.17l5.32-17.58h-5.32v2.93h-2.42v-5.86H157.87z"/>
		<path class="st2" d="M169.95,475.84v6.71c0,4.88-1.61,7.32-4.83,7.32s-4.83-2.44-4.83-7.32v-6.71c0-4.71,1.61-7.06,4.83-7.06
			S169.95,471.14,169.95,475.84z M165.12,471.71c-1.61,0-2.42,1.38-2.42,4.13v6.71c0,2.93,0.8,4.39,2.42,4.39
			c1.61,0,2.42-1.46,2.42-4.39v-6.71C167.53,473.09,166.73,471.71,165.12,471.71z"/>
	</g>
	<g>
		<path class="st2" d="M114.44,545.57v2.93l-5.68,18.75l-2.17-1.17l5.32-17.58h-5.32v2.93h-2.42v-5.86H114.44z"/>
		<path class="st2" d="M124.71,558.75c0-2.44-0.81-3.66-2.42-3.66c-1.53,0-2.5,0.83-2.9,2.49l-2.29-0.73l0.6-11.28h8.82v2.93h-6.4
			l-0.36,5.13c0.48-0.98,1.33-1.46,2.54-1.46c3.22,0,4.83,2.2,4.83,6.59v0.73c-0.02,4.59-1.75,6.88-5.21,6.88
			c-3.17,0-4.86-1.95-5.06-5.86l2.4-0.44c0,2.25,0.89,3.37,2.66,3.37c1.84,0,2.77-1.32,2.79-3.96V558.75z"/>
	</g>
	<g>
		<path class="st2" d="M91.19,625.67c0-3.91,1.61-5.86,4.83-5.86c3.3,0,4.95,1.95,4.95,5.86c0,2.1-0.62,3.55-1.85,4.35
			c1.39,0.79,2.09,2.27,2.09,4.44c0,3.91-1.73,5.86-5.2,5.86c-3.38,0-5.07-1.95-5.07-5.86c0-2.17,0.68-3.65,2.04-4.44
			C91.79,629.21,91.19,627.76,91.19,625.67z M98.8,634.46c0-2.15-0.93-3.22-2.78-3.22c-1.77,0-2.66,1.07-2.66,3.22
			c0,1.95,0.89,2.93,2.66,2.93C97.87,637.39,98.8,636.41,98.8,634.46z M98.56,625.67c0-1.95-0.85-2.93-2.54-2.93
			c-1.61,0-2.42,0.98-2.42,2.93c0,2.15,0.81,3.22,2.42,3.22C97.71,628.9,98.56,627.82,98.56,625.67z"/>
		<path class="st2" d="M113.3,626.58v6.71c0,4.88-1.61,7.32-4.83,7.32s-4.83-2.44-4.83-7.32v-6.71c0-4.71,1.61-7.06,4.83-7.06
			S113.3,621.87,113.3,626.58z M108.47,622.45c-1.61,0-2.42,1.38-2.42,4.13v6.71c0,2.93,0.8,4.39,2.42,4.39
			c1.61,0,2.42-1.46,2.42-4.39v-6.71C110.88,623.83,110.08,622.45,108.47,622.45z"/>
	</g>
	<g>
		<path class="st2" d="M99.82,691.57c0-3.91,1.61-5.86,4.83-5.86c3.3,0,4.95,1.95,4.95,5.86c0,2.1-0.62,3.55-1.85,4.35
			c1.39,0.79,2.09,2.27,2.09,4.44c0,3.91-1.73,5.86-5.2,5.86c-3.38,0-5.07-1.95-5.07-5.86c0-2.17,0.68-3.65,2.04-4.44
			C100.42,695.11,99.82,693.66,99.82,691.57z M107.43,700.36c0-2.15-0.93-3.22-2.78-3.22c-1.77,0-2.66,1.07-2.66,3.22
			c0,1.95,0.89,2.93,2.66,2.93C106.5,703.29,107.43,702.32,107.43,700.36z M107.19,691.57c0-1.95-0.85-2.93-2.54-2.93
			c-1.61,0-2.42,0.98-2.42,2.93c0,2.15,0.81,3.22,2.42,3.22C106.34,694.8,107.19,693.72,107.19,691.57z"/>
		<path class="st2" d="M120.12,698.9c0-2.44-0.81-3.66-2.42-3.66c-1.53,0-2.5,0.83-2.9,2.49l-2.29-0.73l0.6-11.28h8.82v2.93h-6.4
			l-0.36,5.13c0.48-0.98,1.33-1.46,2.54-1.46c3.22,0,4.83,2.2,4.83,6.59v0.73c-0.02,4.59-1.75,6.88-5.21,6.88
			c-3.17,0-4.86-1.95-5.06-5.86l2.4-0.44c0,2.25,0.89,3.37,2.66,3.37c1.84,0,2.77-1.32,2.79-3.96V698.9z"/>
	</g>
	<g>
		<path class="st2" d="M127.5,740.34c3.46,0,5.2,2.54,5.2,7.62v6.01c0,4.98-1.73,7.47-5.2,7.47c-3.15,0-4.83-1.96-5.05-5.89
			l2.39-0.56c0,2.34,0.89,3.52,2.66,3.52c1.85,0,2.78-1.51,2.78-4.54v-1.74c-0.87,1.06-1.92,1.6-3.14,1.6
			c-3.14,0-4.71-2.2-4.71-6.59C122.51,742.63,124.2,740.34,127.5,740.34z M127.14,750.89c1.14,0,2.18-0.49,3.14-1.46v-1.46
			c0-3.13-0.93-4.69-2.78-4.69c-1.74,0-2.63,1.32-2.66,3.96C124.84,749.67,125.61,750.89,127.14,750.89z"/>
		<path class="st2" d="M144.78,747.4v6.71c0,4.88-1.61,7.32-4.83,7.32s-4.83-2.44-4.83-7.32v-6.71c0-4.71,1.61-7.06,4.83-7.06
			S144.78,742.69,144.78,747.4z M139.94,743.27c-1.61,0-2.42,1.38-2.42,4.13v6.71c0,2.93,0.8,4.39,2.42,4.39
			c1.61,0,2.42-1.46,2.42-4.39v-6.71C142.36,744.65,141.55,743.27,139.94,743.27z"/>
	</g>
	<g>
		<path class="st2" d="M186.35,822.03v-2.93c0.81,0,1.81-0.98,3.02-2.93h2.42v20.51h-2.42v-16.85
			C188.4,821.3,187.39,822.03,186.35,822.03z"/>
		<path class="st2" d="M205.07,822.94v6.71c0,4.88-1.61,7.32-4.83,7.32s-4.83-2.44-4.83-7.32v-6.71c0-4.71,1.61-7.06,4.83-7.06
			S205.07,818.23,205.07,822.94z M200.24,818.81c-1.61,0-2.42,1.38-2.42,4.13v6.71c0,2.93,0.8,4.39,2.42,4.39
			c1.61,0,2.42-1.46,2.42-4.39v-6.71C202.66,820.18,201.85,818.81,200.24,818.81z"/>
		<path class="st2" d="M217.16,822.94v6.71c0,4.88-1.61,7.32-4.83,7.32s-4.83-2.44-4.83-7.32v-6.71c0-4.71,1.61-7.06,4.83-7.06
			S217.16,818.23,217.16,822.94z M212.32,818.81c-1.61,0-2.42,1.38-2.42,4.13v6.71c0,2.93,0.8,4.39,2.42,4.39
			c1.61,0,2.42-1.46,2.42-4.39v-6.71C214.74,820.18,213.93,818.81,212.32,818.81z"/>
	</g>
	<g>
		<path class="st2" d="M259.08,857.75v-2.93c0.81,0,1.81-0.98,3.02-2.93h2.42v20.51h-2.42v-16.85
			C261.13,857.02,260.13,857.75,259.08,857.75z"/>
		<path class="st2" d="M269.35,857.75v-2.93c0.81,0,1.81-0.98,3.02-2.93h2.42v20.51h-2.42v-16.85
			C271.4,857.02,270.4,857.75,269.35,857.75z"/>
		<path class="st2" d="M288.08,858.66v6.71c0,4.88-1.61,7.32-4.83,7.32s-4.83-2.44-4.83-7.32v-6.71c0-4.71,1.61-7.06,4.83-7.06
			S288.08,853.95,288.08,858.66z M283.24,854.53c-1.61,0-2.42,1.38-2.42,4.13v6.71c0,2.93,0.8,4.39,2.42,4.39
			c1.61,0,2.42-1.46,2.42-4.39v-6.71C285.66,855.9,284.85,854.53,283.24,854.53z"/>
	</g>
	<g>
		<path class="st2" d="M329.98,870.25v-2.93c0.81,0,1.81-0.98,3.02-2.93h2.42v20.51H333v-16.85
			C332.04,869.52,331.03,870.25,329.98,870.25z"/>
		<path class="st2" d="M348.71,869.96c0,2.64-1.13,4.98-3.38,7.03c-2.25,2.04-3.42,3.7-3.5,4.98h6.89v2.93h-9.67v-2.2
			c0.24-2.44,1.51-4.76,3.81-6.96c2.3-2.2,3.44-4.13,3.44-5.79c-0.02-1.95-0.83-2.93-2.43-2.93c-1.61,0-2.42,1.17-2.42,3.52
			l-2.39-0.56c0.22-3.93,1.82-5.89,4.81-5.89C347.08,864.1,348.7,866.05,348.71,869.96z"/>
		<path class="st2" d="M360.79,871.16v6.71c0,4.88-1.61,7.32-4.83,7.32s-4.83-2.44-4.83-7.32v-6.71c0-4.71,1.61-7.06,4.83-7.06
			S360.79,866.45,360.79,871.16z M355.96,867.03c-1.61,0-2.42,1.38-2.42,4.13v6.71c0,2.93,0.8,4.39,2.42,4.39
			c1.61,0,2.42-1.46,2.42-4.39v-6.71C358.37,868.41,357.57,867.03,355.96,867.03z"/>
	</g>
	<g>
		<path class="st2" d="M385.32,862.09v-2.93c0.81,0,1.81-0.98,3.02-2.93h2.42v20.51h-2.42v-16.85
			C387.37,861.36,386.36,862.09,385.32,862.09z"/>
		<path class="st2" d="M404.41,861.79c0,2.31-0.79,3.87-2.36,4.66c1.73,0.78,2.6,2.35,2.6,4.72c-0.01,3.91-1.74,5.86-5.21,5.86
			c-3.17,0-4.86-1.95-5.06-5.86l2.4-0.44c0,2.25,0.89,3.37,2.66,3.37c1.84,0,2.77-0.98,2.79-2.93c0-2.15-1.09-3.22-3.26-3.22v-2.93
			c2.01,0,3.02-1.07,3.02-3.22c-0.02-1.95-0.87-2.93-2.55-2.93c-1.61,0-2.42,1.17-2.42,3.52l-2.39-0.56
			c0.22-3.93,1.82-5.89,4.81-5.89C402.74,855.94,404.4,857.89,404.41,861.79z"/>
		<path class="st2" d="M416.73,863v6.71c0,4.88-1.61,7.32-4.83,7.32s-4.83-2.44-4.83-7.32V863c0-4.71,1.61-7.06,4.83-7.06
			S416.73,858.29,416.73,863z M411.9,858.86c-1.61,0-2.42,1.38-2.42,4.13v6.71c0,2.93,0.8,4.39,2.42,4.39
			c1.61,0,2.42-1.46,2.42-4.39V863C414.31,860.24,413.51,858.86,411.9,858.86z"/>
	</g>
	<g>
		<path class="st2" d="M431.24,846.27v-2.93c0.81,0,1.81-0.98,3.02-2.93h2.42v20.51h-2.42v-16.85
			C433.3,845.53,432.29,846.27,431.24,846.27z"/>
		<path class="st2" d="M446.95,860.91v-5.86h-6.65v-2.93l6.28-11.72h2.78v11.72h1.21v2.93h-1.21v5.86H446.95z M446.95,852.13v-7.32
			l-3.87,7.32H446.95z"/>
		<path class="st2" d="M462.66,847.17v6.71c0,4.88-1.61,7.32-4.83,7.32s-4.83-2.44-4.83-7.32v-6.71c0-4.71,1.61-7.06,4.83-7.06
			S462.66,842.47,462.66,847.17z M457.82,843.04c-1.61,0-2.42,1.38-2.42,4.13v6.71c0,2.93,0.8,4.39,2.42,4.39
			c1.61,0,2.42-1.46,2.42-4.39v-6.71C460.24,844.42,459.43,843.04,457.82,843.04z"/>
	</g>
	<g>
		<path class="st2" d="M468.21,823.81v-2.93c0.81,0,1.81-0.98,3.02-2.93h2.42v20.51h-2.42v-16.85
			C470.27,823.07,469.26,823.81,468.21,823.81z"/>
		<path class="st2" d="M485.13,831.13c0-2.44-0.81-3.66-2.42-3.66c-1.53,0-2.5,0.83-2.9,2.49l-2.29-0.73l0.6-11.28h8.82v2.93h-6.4
			l-0.36,5.13c0.48-0.98,1.33-1.46,2.54-1.46c3.22,0,4.83,2.2,4.83,6.59v0.73c-0.02,4.59-1.75,6.88-5.21,6.88
			c-3.17,0-4.86-1.95-5.06-5.86l2.4-0.44c0,2.25,0.89,3.37,2.66,3.37c1.84,0,2.77-1.32,2.79-3.96V831.13z"/>
		<path class="st2" d="M499.63,824.72v6.71c0,4.88-1.61,7.32-4.83,7.32s-4.83-2.44-4.83-7.32v-6.71c0-4.71,1.61-7.06,4.83-7.06
			S499.63,820.01,499.63,824.72z M494.79,820.58c-1.61,0-2.42,1.38-2.42,4.13v6.71c0,2.93,0.8,4.39,2.42,4.39
			c1.61,0,2.42-1.46,2.42-4.39v-6.71C497.21,821.96,496.4,820.58,494.79,820.58z"/>
	</g>
	<g>
		<path class="st2" d="M503.89,792.68v-2.93c0.81,0,1.81-0.98,3.02-2.93h2.42v20.51h-2.42v-16.85
			C505.94,791.94,504.94,792.68,503.89,792.68z"/>
		<path class="st2" d="M518.15,807.62c-3.46,0-5.2-2.44-5.2-7.32V794c0-4.98,1.73-7.47,5.2-7.47c3.15,0,4.83,1.96,5.05,5.89
			l-2.39,0.56c0-2.34-0.89-3.52-2.66-3.52c-1.85,0-2.78,1.51-2.78,4.54v1.76c0.86-1.07,1.91-1.61,3.14-1.61
			c3.1,0,4.67,2.15,4.71,6.45C523.17,805.27,521.48,807.62,518.15,807.62z M518.51,797.07c-1.14,0-2.18,0.49-3.14,1.46v1.76
			c0,2.93,0.93,4.39,2.78,4.39c1.73,0,2.62-1.32,2.66-3.96C520.8,798.29,520.04,797.07,518.51,797.07z"/>
		<path class="st2" d="M535.3,793.59v6.71c0,4.88-1.61,7.32-4.83,7.32s-4.83-2.44-4.83-7.32v-6.71c0-4.71,1.61-7.06,4.83-7.06
			S535.3,788.88,535.3,793.59z M530.47,789.45c-1.61,0-2.42,1.38-2.42,4.13v6.71c0,2.93,0.8,4.39,2.42,4.39
			c1.61,0,2.42-1.46,2.42-4.39v-6.71C532.89,790.83,532.08,789.45,530.47,789.45z"/>
	</g>
	<g>
		<path class="st2" d="M524.72,766.62v-2.93c0.81,0,1.81-0.98,3.02-2.93h2.42v20.51h-2.42v-16.85
			C526.77,765.89,525.76,766.62,524.72,766.62z"/>
		<path class="st2" d="M544.05,760.76v2.93l-5.68,18.75l-2.17-1.17l5.32-17.58h-5.32v2.93h-2.42v-5.86H544.05z"/>
		<path class="st2" d="M556.13,767.53v6.71c0,4.88-1.61,7.32-4.83,7.32s-4.83-2.44-4.83-7.32v-6.71c0-4.71,1.61-7.06,4.83-7.06
			S556.13,762.82,556.13,767.53z M551.3,763.4c-1.61,0-2.42,1.38-2.42,4.13v6.71c0,2.93,0.8,4.39,2.42,4.39
			c1.61,0,2.42-1.46,2.42-4.39v-6.71C553.71,764.77,552.91,763.4,551.3,763.4z"/>
	</g>
	<g>
		<path class="st2" d="M539.45,743.39v-2.93c0.81,0,1.81-0.98,3.02-2.93h2.42v20.51h-2.42v-16.85
			C541.5,742.66,540.5,743.39,539.45,743.39z"/>
		<path class="st2" d="M548.75,743.39c0-3.91,1.61-5.86,4.83-5.86c3.3,0,4.95,1.95,4.95,5.86c0,2.1-0.62,3.55-1.85,4.35
			c1.39,0.79,2.09,2.27,2.09,4.44c0,3.91-1.73,5.86-5.2,5.86c-3.38,0-5.07-1.95-5.07-5.86c0-2.17,0.68-3.65,2.04-4.44
			C549.35,746.93,548.75,745.48,548.75,743.39z M556.36,752.18c0-2.15-0.93-3.22-2.78-3.22c-1.77,0-2.66,1.07-2.66,3.22
			c0,1.95,0.89,2.93,2.66,2.93C555.44,755.11,556.36,754.13,556.36,752.18z M556.12,743.39c0-1.95-0.85-2.93-2.54-2.93
			c-1.61,0-2.42,0.98-2.42,2.93c0,2.15,0.81,3.22,2.42,3.22C555.28,746.61,556.12,745.54,556.12,743.39z"/>
		<path class="st2" d="M570.86,744.3v6.71c0,4.88-1.61,7.32-4.83,7.32s-4.83-2.44-4.83-7.32v-6.71c0-4.71,1.61-7.06,4.83-7.06
			S570.86,739.59,570.86,744.3z M566.03,740.17c-1.61,0-2.42,1.38-2.42,4.13v6.71c0,2.93,0.8,4.39,2.42,4.39
			c1.61,0,2.42-1.46,2.42-4.39v-6.71C568.44,741.54,567.64,740.17,566.03,740.17z"/>
	</g>
	<g>
		<path class="st2" d="M552.83,714.8v-2.93c0.81,0,1.81-0.98,3.02-2.93h2.42v20.51h-2.42v-16.85
			C554.88,714.07,553.88,714.8,552.83,714.8z"/>
		<path class="st2" d="M566.96,708.65c3.46,0,5.2,2.54,5.2,7.62v6.01c0,4.98-1.73,7.47-5.2,7.47c-3.15,0-4.83-1.96-5.05-5.89
			l2.39-0.56c0,2.34,0.89,3.52,2.66,3.52c1.85,0,2.78-1.51,2.78-4.54v-1.74c-0.87,1.06-1.92,1.6-3.14,1.6
			c-3.14,0-4.71-2.2-4.71-6.59C561.98,710.95,563.67,708.65,566.96,708.65z M566.6,719.2c1.14,0,2.18-0.49,3.14-1.46v-1.46
			c0-3.13-0.93-4.69-2.78-4.69c-1.74,0-2.63,1.32-2.66,3.96C564.31,717.98,565.07,719.2,566.6,719.2z"/>
		<path class="st2" d="M584.24,715.71v6.71c0,4.88-1.61,7.32-4.83,7.32s-4.83-2.44-4.83-7.32v-6.71c0-4.71,1.61-7.06,4.83-7.06
			S584.24,711.01,584.24,715.71z M579.41,711.58c-1.61,0-2.42,1.38-2.42,4.13v6.71c0,2.93,0.8,4.39,2.42,4.39
			c1.61,0,2.42-1.46,2.42-4.39v-6.71C581.82,712.96,581.02,711.58,579.41,711.58z"/>
	</g>
	<g>
		<path class="st2" d="M569.98,685.87c0,2.64-1.13,4.98-3.38,7.03c-2.25,2.04-3.42,3.7-3.5,4.98h6.89v2.93h-9.67v-2.2
			c0.24-2.44,1.51-4.76,3.81-6.96c2.3-2.2,3.44-4.13,3.44-5.79c-0.02-1.95-0.83-2.93-2.43-2.93c-1.61,0-2.42,1.17-2.42,3.52
			l-2.39-0.56c0.22-3.93,1.82-5.89,4.81-5.89C568.36,680.01,569.98,681.96,569.98,685.87z"/>
		<path class="st2" d="M582.07,687.07v6.71c0,4.88-1.61,7.32-4.83,7.32s-4.83-2.44-4.83-7.32v-6.71c0-4.71,1.61-7.06,4.83-7.06
			S582.07,682.36,582.07,687.07z M577.23,682.94c-1.61,0-2.42,1.38-2.42,4.13v6.71c0,2.93,0.8,4.39,2.42,4.39
			c1.61,0,2.42-1.46,2.42-4.39v-6.71C579.65,684.32,578.84,682.94,577.23,682.94z"/>
		<path class="st2" d="M594.15,687.07v6.71c0,4.88-1.61,7.32-4.83,7.32s-4.83-2.44-4.83-7.32v-6.71c0-4.71,1.61-7.06,4.83-7.06
			S594.15,682.36,594.15,687.07z M589.31,682.94c-1.61,0-2.42,1.38-2.42,4.13v6.71c0,2.93,0.8,4.39,2.42,4.39
			c1.61,0,2.42-1.46,2.42-4.39v-6.71C591.73,684.32,590.93,682.94,589.31,682.94z"/>
	</g>
	<line class="st6" x1="455.41" y1="694.19" x2="455.41" y2="679.99"/>
	<line class="st6" x1="468.2" y1="692.85" x2="466.98" y2="687.11"/>
	<line class="st6" x1="480.43" y1="688.87" x2="478.05" y2="683.52"/>
	<line class="st6" x1="491.57" y1="682.44" x2="488.12" y2="677.7"/>
	<line class="st6" x1="501.12" y1="673.84" x2="496.77" y2="669.92"/>
	<line class="st6" x1="513.91" y1="651.69" x2="508.34" y2="649.88"/>
	<line class="st6" x1="516.59" y1="639.11" x2="510.76" y2="638.5"/>
	<line class="st6" x1="516.59" y1="626.25" x2="510.76" y2="626.86"/>
	<line class="st6" x1="513.91" y1="613.67" x2="508.34" y2="615.48"/>
	<line class="st6" x1="508.68" y1="601.92" x2="503.61" y2="604.85"/>
	<line class="st6" x1="501.12" y1="591.52" x2="496.77" y2="595.44"/>
	<line class="st6" x1="491.57" y1="582.92" x2="488.12" y2="587.66"/>
	<line class="st6" x1="480.43" y1="576.49" x2="478.05" y2="581.84"/>
	<line class="st6" x1="468.2" y1="572.51" x2="466.98" y2="578.24"/>
	<line class="st6" x1="442.62" y1="572.51" x2="443.84" y2="578.24"/>
	<line class="st6" x1="430.4" y1="576.49" x2="432.78" y2="581.84"/>
	<line class="st6" x1="419.26" y1="582.92" x2="422.7" y2="587.66"/>
	<line class="st6" x1="409.7" y1="591.52" x2="414.06" y2="595.44"/>
	<line class="st6" x1="402.14" y1="601.92" x2="407.22" y2="604.85"/>
	<line class="st6" x1="396.91" y1="613.67" x2="402.49" y2="615.48"/>
	<line class="st6" x1="394.24" y1="626.25" x2="400.07" y2="626.86"/>
	<line class="st6" x1="394.24" y1="639.11" x2="400.07" y2="638.5"/>
	<line class="st6" x1="396.91" y1="651.69" x2="402.49" y2="649.88"/>
	<line class="st7" x1="402.14" y1="663.43" x2="407.22" y2="660.51"/>
	<line class="st7" x1="508.68" y1="663.43" x2="503.61" y2="660.51"/>
	<line class="st7" x1="455.41" y1="571.17" x2="455.41" y2="577.03"/>
	<line class="st6" x1="413.2" y1="670.69" x2="414.06" y2="669.92"/>
	<line class="st6" x1="409.7" y1="673.84" x2="411.64" y2="672.1"/>
	<line class="st6" x1="419.26" y1="682.44" x2="422.32" y2="678.23"/>
	<line class="st6" x1="430.4" y1="688.87" x2="432.52" y2="684.1"/>
	<line class="st6" x1="443.59" y1="688.31" x2="443.84" y2="687.11"/>
	<line class="st6" x1="442.62" y1="692.85" x2="443.18" y2="690.23"/>
	<line class="st6" x1="508.68" y1="601.92" x2="496.39" y2="609.02"/>
	<line class="st6" x1="402.14" y1="601.92" x2="414.44" y2="609.02"/>
	<circle class="st0" cx="344.78" cy="407.97" r="2.85"/>
	<circle class="st0" cx="239.66" cy="434.29" r="2.85"/>
	<circle class="st0" cx="169.35" cy="492.88" r="2.85"/>
	<circle class="st0" cx="131.56" cy="563.64" r="2.85"/>
	<circle class="st0" cx="121.04" cy="632.86" r="2.85"/>
	<circle class="st0" cx="129.26" cy="692.54" r="2.85"/>
	<circle class="st0" cx="150.19" cy="743.48" r="2.85"/>
	<circle class="st0" cx="211.87" cy="812.29" r="2.85"/>
	<circle class="st0" cx="280.26" cy="846.71" r="2.85"/>
	<circle class="st0" cx="344.78" cy="856.39" r="2.85"/>
	<circle class="st0" cx="398.05" cy="849.46" r="2.85"/>
	<circle class="st0" cx="441.39" cy="834.23" r="2.85"/>
	<circle class="st0" cx="476.37" cy="813.2" r="2.85"/>
	<circle class="st0" cx="500.22" cy="793.32" r="2.85"/>
	<circle class="st0" cx="521.9" cy="769" r="2.85"/>
	<circle class="st0" cx="537.36" cy="746.49" r="2.85"/>
	<circle class="st0" cx="549.25" cy="723.85" r="2.85"/>
	<circle class="st0" cx="557.14" cy="703.37" r="2.85"/>
	<circle class="st0" cx="559.04" cy="565.93" r="2.85"/>
	<circle class="st0" cx="469.84" cy="446.33" r="2.85"/>
	<line class="st8" x1="544.37" y1="537.45" x2="552.4" y2="533.34"/>
	<line class="st8" x1="529.24" y1="510.59" x2="536.62" y2="505.41"/>
	<line class="st8" x1="510.51" y1="486.1" x2="517.11" y2="479.94"/>
	<line class="st8" x1="488.57" y1="464.46" x2="494.24" y2="457.44"/>
	<line class="st8" x1="443.71" y1="434.66" x2="447.52" y2="426.48"/>
	<line class="st8" x1="418.9" y1="424.07" x2="421.68" y2="415.49"/>
	<line class="st8" x1="392.98" y1="416.59" x2="394.69" y2="407.73"/>
	<line class="st8" x1="366.35" y1="412.33" x2="366.96" y2="403.32"/>
	<line class="st8" x1="325.91" y1="412.08" x2="324.88" y2="403.11"/>
	<line class="st8" x1="304.9" y1="414.9" x2="303.02" y2="406.08"/>
	<line class="st8" x1="284.26" y1="419.72" x2="281.53" y2="411.12"/>
	<line class="st8" x1="264.17" y1="426.5" x2="260.63" y2="418.2"/>
	<line class="st8" x1="226.4" y1="445.66" x2="221.35" y2="438.19"/>
	<line class="st8" x1="212.13" y1="455.53" x2="206.5" y2="448.47"/>
	<line class="st8" x1="198.68" y1="466.48" x2="192.51" y2="459.89"/>
	<line class="st8" x1="186.12" y1="478.45" x2="179.46" y2="472.37"/>
	<line class="st8" x1="164.02" y1="505.17" x2="156.49" y2="500.2"/>
	<line class="st8" x1="155.01" y1="519.08" x2="147.12" y2="514.68"/>
	<line class="st8" x1="147.06" y1="533.62" x2="138.87" y2="529.84"/>
	<line class="st8" x1="140.22" y1="548.73" x2="131.77" y2="545.56"/>
	<line class="st8" x1="131.08" y1="576.14" x2="122.28" y2="574.11"/>
	<line class="st8" x1="128.05" y1="589.29" x2="119.15" y2="587.8"/>
	<line class="st8" x1="125.84" y1="602.6" x2="116.86" y2="601.66"/>
	<line class="st8" x1="124.44" y1="616.03" x2="115.42" y2="615.63"/>
	<line class="st8" x1="124.21" y1="644.92" x2="115.22" y2="645.71"/>
	<line class="st8" x1="125.18" y1="656.45" x2="116.24" y2="657.7"/>
	<line class="st8" x1="126.75" y1="667.91" x2="117.89" y2="669.63"/>
	<line class="st8" x1="128.91" y1="679.27" x2="120.16" y2="681.45"/>
	<line class="st8" x1="135.01" y1="701.58" x2="126.53" y2="704.66"/>
	<line class="st8" x1="138.65" y1="711.74" x2="130.33" y2="715.24"/>
	<line class="st8" x1="142.79" y1="721.72" x2="134.65" y2="725.61"/>
	<line class="st8" x1="147.4" y1="731.48" x2="139.46" y2="735.77"/>
	<line class="st8" x1="156.8" y1="748.3" x2="149.27" y2="753.27"/>
	<line class="st8" x1="162.7" y1="757.35" x2="155.41" y2="762.67"/>
	<line class="st8" x1="168.33" y1="765.17" x2="161.28" y2="770.81"/>
	<line class="st8" x1="174.3" y1="772.74" x2="167.5" y2="778.68"/>
	<line class="st9" x1="179.3" y1="778.61" x2="167.5" y2="790.27"/>
	<line class="st8" x1="185.85" y1="785.68" x2="179.54" y2="792.14"/>
	<line class="st8" x1="192.69" y1="792.47" x2="186.68" y2="799.2"/>
	<line class="st8" x1="199.83" y1="798.95" x2="194.11" y2="805.93"/>
	<line class="st8" x1="207.24" y1="805.12" x2="201.83" y2="812.34"/>
	<line class="st9" x1="246.19" y1="829.94" x2="238.49" y2="843.86"/>
	<line class="st9" x1="309.83" y1="850.37" x2="306.51" y2="865.62"/>
	<line class="st9" x1="371.32" y1="851.55" x2="371.99" y2="867.44"/>
	<line class="st9" x1="418.16" y1="840.61" x2="422.93" y2="855.76"/>
	<line class="st10" x1="283.27" y1="745.8" x2="289.05" y2="745.8"/>
	<line class="st10" x1="344.78" y1="807.31" x2="344.78" y2="801.53"/>
	<line class="st10" x1="406.29" y1="745.8" x2="400.52" y2="745.8"/>
	<line class="st10" x1="344.78" y1="684.29" x2="344.78" y2="690.07"/>
	<line class="st6" x1="291.51" y1="776.55" x2="300.33" y2="771.46"/>
	<line class="st6" x1="314.03" y1="799.07" x2="319.12" y2="790.25"/>
	<line class="st6" x1="375.54" y1="799.07" x2="370.44" y2="790.25"/>
	<line class="st6" x1="398.05" y1="776.55" x2="389.23" y2="771.46"/>
	<line class="st6" x1="398.05" y1="715.04" x2="389.23" y2="720.14"/>
	<line class="st6" x1="375.54" y1="692.53" x2="370.44" y2="701.35"/>
	<line class="st6" x1="314.03" y1="692.53" x2="319.12" y2="701.35"/>
	<line class="st6" x1="291.51" y1="715.04" x2="300.33" y2="720.14"/>
	<polygon class="st11" points="280.46,509.71 258.62,472.18 252.22,475.94 274.05,513.47 	"/>
	<g>
		
			<rect x="261.16" y="472.4" transform="matrix(0.866 -0.5 0.5 0.866 -211.2475 198.425)" class="st0" width="6.96" height="42.02"/>
		<line class="st0" x1="254.49" y1="482.78" x2="260.52" y2="479.3"/>
		<line class="st0" x1="268.77" y1="507.51" x2="274.8" y2="504.03"/>
	</g>
	<g>
		
			<rect x="202.5" y="531.06" transform="matrix(0.5 -0.866 0.866 0.5 -375.1199 454.4166)" class="st0" width="6.96" height="42.02"/>
		<line class="st0" x1="191.87" y1="547.95" x2="195.35" y2="541.92"/>
		<line class="st0" x1="216.6" y1="562.23" x2="220.08" y2="556.2"/>
	</g>
	<g>
		
			<rect x="202.5" y="691.34" transform="matrix(-0.5 -0.866 0.866 -0.5 -307.9489 1246.9061)" class="st0" width="6.96" height="42.02"/>
		<line class="st0" x1="195.35" y1="722.5" x2="191.87" y2="716.47"/>
		<line class="st0" x1="220.08" y1="708.23" x2="216.6" y2="702.2"/>
	</g>
	<g>
		
			<rect x="261.16" y="750.01" transform="matrix(-0.866 -0.5 0.5 -0.866 108.3212 1571.0571)" class="st0" width="6.96" height="42.02"/>
		<line class="st0" x1="260.52" y1="785.12" x2="254.49" y2="781.64"/>
		<line class="st0" x1="274.8" y1="760.39" x2="268.77" y2="756.91"/>
	</g>
	<g>
		
			<rect x="421.44" y="750.01" transform="matrix(-0.866 0.5 -0.5 -0.866 1178.4214 1226.2755)" class="st0" width="6.96" height="42.02"/>
		<line class="st0" x1="435.07" y1="781.64" x2="429.05" y2="785.12"/>
		<line class="st0" x1="420.8" y1="756.91" x2="414.77" y2="760.39"/>
	</g>
	<g>
		<polyline class="st0" points="499.52,725.57 463.65,704.86 464.89,702.71 		"/>
		<polyline class="st0" points="465.78,701.17 467.13,698.83 503,719.54 		"/>
		<line class="st0" x1="495.48" y1="720.3" x2="494.21" y2="722.5"/>
		<line class="st0" x1="497.69" y1="716.47" x2="496.31" y2="718.87"/>
		<line class="st0" x1="470.73" y1="706.07" x2="469.48" y2="708.23"/>
		<line class="st0" x1="472.96" y1="702.2" x2="471.6" y2="704.55"/>
	</g>
	<g>
		
			<rect x="480.11" y="531.06" transform="matrix(0.5 0.866 -0.866 0.5 719.9016 -142.7628)" class="st0" width="6.96" height="42.02"/>
		<line class="st0" x1="494.21" y1="541.92" x2="497.69" y2="547.95"/>
		<line class="st0" x1="469.48" y1="556.2" x2="472.96" y2="562.23"/>
	</g>
	<g>
		
			<rect x="421.44" y="472.4" transform="matrix(0.866 0.5 -0.5 0.866 303.6314 -146.3566)" class="st0" width="6.96" height="42.02"/>
		<line class="st0" x1="429.05" y1="479.3" x2="435.07" y2="482.78"/>
		<line class="st0" x1="414.77" y1="504.03" x2="420.8" y2="507.51"/>
	</g>
	<g>
		<line class="st4" x1="344.78" y1="436.02" x2="344.78" y2="440.08"/>
		<line class="st4" x1="344.78" y1="436.02" x2="344.78" y2="440.08"/>
		<circle class="st12" cx="344.78" cy="443.58" r="3.7"/>
	</g>
	<g>
		<line class="st4" x1="246.68" y1="462.3" x2="248.72" y2="465.82"/>
		<line class="st4" x1="246.68" y1="462.3" x2="248.72" y2="465.82"/>
		<circle class="st12" cx="250.46" cy="468.85" r="3.7"/>
	</g>
	<g>
		<line class="st4" x1="174.87" y1="534.11" x2="178.39" y2="536.14"/>
		<line class="st4" x1="174.87" y1="534.11" x2="178.39" y2="536.14"/>
		<circle class="st12" cx="181.42" cy="537.89" r="3.7"/>
	</g>
	<g>
		<line class="st4" x1="148.59" y1="632.21" x2="152.65" y2="632.21"/>
		<line class="st4" x1="148.59" y1="632.21" x2="152.65" y2="632.21"/>
		<circle class="st12" cx="156.15" cy="632.21" r="3.7"/>
	</g>
	<g>
		<line class="st4" x1="174.87" y1="730.31" x2="178.39" y2="728.28"/>
		<line class="st4" x1="174.87" y1="730.31" x2="178.39" y2="728.28"/>
		<circle class="st12" cx="181.42" cy="726.53" r="3.7"/>
	</g>
	<g>
		<line class="st4" x1="246.68" y1="802.12" x2="248.72" y2="798.6"/>
		<line class="st4" x1="246.68" y1="802.12" x2="248.72" y2="798.6"/>
		<circle class="st12" cx="250.46" cy="795.57" r="3.7"/>
	</g>
	<g>
		<line class="st4" x1="344.78" y1="828.41" x2="344.78" y2="824.34"/>
		<line class="st4" x1="344.78" y1="828.41" x2="344.78" y2="824.34"/>
		<circle class="st12" cx="344.78" cy="820.84" r="3.7"/>
	</g>
	<g>
		<line class="st4" x1="442.88" y1="802.12" x2="440.85" y2="798.6"/>
		<line class="st4" x1="442.88" y1="802.12" x2="440.85" y2="798.6"/>
		<circle class="st12" cx="439.1" cy="795.57" r="3.7"/>
	</g>
	<g>
		<path class="st12" d="M509.51,723.09c0.16,0.07,0.32,0.14,0.48,0.23c0.81,0.47,1.38,1.2,1.66,2.03"/>
	</g>
	<g>
		<line class="st4" x1="540.98" y1="632.21" x2="536.91" y2="632.21"/>
		<line class="st4" x1="540.98" y1="632.21" x2="536.91" y2="632.21"/>
		<circle class="st12" cx="533.42" cy="632.21" r="3.7"/>
	</g>
	<g>
		<line class="st4" x1="514.69" y1="534.11" x2="511.17" y2="536.14"/>
		<line class="st4" x1="514.69" y1="534.11" x2="511.17" y2="536.14"/>
		<circle class="st12" cx="508.14" cy="537.89" r="3.7"/>
	</g>
	<g>
		<line class="st4" x1="442.88" y1="462.3" x2="440.85" y2="465.82"/>
		<line class="st4" x1="442.88" y1="462.3" x2="440.85" y2="465.82"/>
		<circle class="st12" cx="439.1" cy="468.85" r="3.7"/>
	</g>
	<circle cx="344.39" cy="630.8" r="1.15"/>
	<path class="st0" d="M332.48,626.58c-0.79,1.71-1.22,3.62-1.22,5.63c0,1.77,0.35,3.45,0.96,5l-17.15,15.23l6.64,7.48l17.39-15.44
		c1.73,0.8,3.65,1.27,5.69,1.27c4.57,0,8.61-2.26,11.06-5.73"/>
	<path class="st0" d="M356.97,638.09c0.86-1.78,1.34-3.77,1.34-5.88c0-1.47-0.24-2.88-0.67-4.2l129-114.53L480,506L351.24,620.32
		c-1.92-1.04-4.12-1.64-6.46-1.64c-4.63,0-8.71,2.32-11.15,5.87"/>
	<polygon class="st0" points="426.57,563.46 474.78,520.66 471.43,516.95 423.18,559.79 	"/>
	<path class="st0" d="M336.7,646.6c2.39,1.34,5.15,2.11,8.08,2.11c3.28,0,6.33-0.97,8.9-2.62l18.43,12.79l4.72-6.8"/>
	<path class="st0" d="M297.65,607.19l31.01,21.53c-0.24,1.13-0.38,2.29-0.38,3.49c0,2.53,0.57,4.93,1.59,7.08"/>
	<path class="st0" d="M353.57,618.25c-2.55-1.61-5.56-2.53-8.79-2.53c-3.53,0-6.8,1.12-9.48,3.01l-79.66-55.29l-6.84,9.86
		l38.78,26.92"/>
	<path class="st0" d="M378.06,650.32l0.9-1.29l-18.23-12.65c0.35-1.33,0.55-2.72,0.55-4.16c0-2.24-0.45-4.37-1.25-6.32"/>
	<polyline class="st0" points="297.73,601.85 300.32,598.09 264.45,573.2 261.08,578.16 290.11,598.31 	"/>
	<path class="st0" d="M340.25,640.06c3.97,2.29,8.95,1.23,11.68-2.29l148.86,85.59l-2.59,4.48l20.39,4.86l-14.41-15.23l-2.59,4.48
		l-148.52-86.1c1.83-4.18,0.27-9.15-3.77-11.48c-4.03-2.33-9.1-1.2-11.81,2.45l-35.53-20.71c-1.06-0.62-1.97-1.46-2.7-2.44
		c-5.79-7.68-11.46-4.93-11.97-4.68c0.04,0.55,0.97,6.8,10.06,8.16c1.14,0.17,2.24,0.53,3.23,1.1l35.79,20.58
		C334.72,632.95,336.29,637.77,340.25,640.06z"/>
	<circle cx="344.78" cy="632.21" r="4.53"/>
	<g>
		<path class="st13" d="M362.3,469.55c-0.96,0.24-1.74,1.03-1.96,1.99c-0.26,1.14,0.2,2.18,1,2.79c-1.13,3.09-5.72,17.23-7.63,19.33
			c-0.28,0.31-0.8,0.09-0.79-0.33c0.18-7.69,1.33-20.92,1.72-23.3c0.06,0,0.11,0.02,0.17,0.02c1.71,0,3.05-1.58,2.64-3.36
			c-0.22-0.98-1.02-1.78-2-2c-1.78-0.41-3.36,0.93-3.36,2.64c0,1.05,0.6,1.95,1.47,2.4c-0.79,4.08-3.06,19.98-4.35,22.58
			c-0.21,0.42-0.81,0.42-1.01,0c-1.33-2.85-2.6-20.3-2.79-24.79c1.23-0.42,2.06-1.69,1.78-3.12c-0.2-1.01-1.01-1.85-2.01-2.08
			c-1.78-0.41-3.36,0.93-3.36,2.64c0,1.11,0.66,2.05,1.61,2.48c-0.48,4.11-0.14,21.48-0.51,24.42c-0.06,0.48-0.69,0.63-0.95,0.23
			c-1.44-2.19-4.78-17.9-5.87-21.5c0.99-0.57,1.59-1.74,1.27-3.02c-0.23-0.96-1.02-1.74-1.98-1.96c-1.78-0.41-3.37,0.93-3.37,2.64
			c0,1.28,0.89,2.35,2.09,2.64c0.29,4.07,4.36,19.04,4.37,22.25c0,0.48-0.51,0.8-0.94,0.58c-2.2-1.12-8.36-14.86-9.75-17.49
			c1.08-0.53,1.76-1.73,1.45-3.07c-0.22-0.98-1.02-1.78-2-2.01c-1.78-0.41-3.36,0.93-3.36,2.64c0,1.5,1.22,2.72,2.72,2.72
			c0.1,0,0.2-0.02,0.3-0.03c1.32,4.55,4.7,14.23,6.43,20.2c0.35,1.2,0.65,2.42,1.03,3.6c1.42,4.48,5.36,6.18,12.47,5.54
			c7.07-0.63,7.4-4.58,8.35-7.14c0.8-2.14,6.2-20.27,7.31-23.84c0.74,0.14,1.57,0.05,2.54-1.01c0.44-0.48,0.71-1.09,0.69-1.74
			C365.64,470.42,364.06,469.12,362.3,469.55z"/>
		<ellipse class="st13" cx="344.73" cy="499.68" rx="8.18" ry="4.45"/>
	</g>
	<g>
		<path class="st14" d="M315.68,549.25h-5.12v-0.44c0.24-0.04,0.43-0.09,0.57-0.14c0.14-0.05,0.24-0.12,0.31-0.21
			c0.07-0.09,0.11-0.21,0.13-0.35c0.02-0.14,0.03-0.32,0.03-0.53v-5.77c0-0.21-0.01-0.39-0.02-0.53c-0.02-0.14-0.06-0.26-0.13-0.35
			c-0.07-0.09-0.17-0.16-0.31-0.22c-0.14-0.06-0.33-0.11-0.58-0.15v-0.44h5.69c0.77,0,1.42,0.04,1.96,0.11
			c0.54,0.07,1.01,0.19,1.41,0.34c0.34,0.13,0.62,0.28,0.86,0.47c0.23,0.19,0.42,0.41,0.54,0.66c0.13,0.25,0.19,0.55,0.19,0.88
			c0,0.44-0.11,0.81-0.34,1.12c-0.22,0.31-0.53,0.57-0.91,0.78c-0.38,0.21-0.89,0.4-1.53,0.59v0.07c0.48,0.14,0.88,0.33,1.2,0.57
			c0.32,0.24,0.6,0.54,0.85,0.91l0.61,0.91c0.27,0.41,0.55,0.71,0.82,0.91s0.59,0.33,0.96,0.37v0.44h-3.76
			c-0.38-0.36-0.8-0.89-1.28-1.59l-0.76-1.14c-0.23-0.34-0.42-0.58-0.59-0.72c-0.16-0.14-0.33-0.24-0.5-0.29
			c-0.17-0.05-0.44-0.08-0.8-0.08h-0.57v2.16c0,0.33,0.02,0.57,0.07,0.7c0.05,0.13,0.13,0.24,0.26,0.32
			c0.13,0.08,0.37,0.15,0.72,0.21V549.25z M314.62,540.91v3.72h0.97c0.52,0,0.95-0.05,1.29-0.14c0.34-0.1,0.61-0.23,0.81-0.4
			c0.2-0.17,0.34-0.37,0.41-0.61c0.08-0.23,0.11-0.49,0.11-0.76c0-0.61-0.21-1.06-0.62-1.37c-0.42-0.3-1.03-0.46-1.85-0.46
			C315.17,540.89,314.8,540.9,314.62,540.91z"/>
		<path class="st14" d="M331.18,549.35c-1.91,0-3.35-0.38-4.31-1.15c-0.96-0.77-1.44-1.92-1.44-3.45c0-1,0.23-1.86,0.7-2.57
			s1.15-1.25,2.05-1.62c0.9-0.37,1.98-0.56,3.23-0.56c1.95,0,3.41,0.38,4.38,1.15c0.98,0.77,1.46,1.9,1.46,3.41
			c0,0.84-0.15,1.57-0.43,2.17s-0.7,1.1-1.24,1.49c-0.53,0.39-1.17,0.67-1.92,0.86C332.92,549.26,332.09,549.35,331.18,549.35z
			 M328.53,544.58c0,1.35,0.24,2.35,0.71,3.01c0.47,0.66,1.19,0.99,2.16,0.99c0.5,0,0.93-0.09,1.28-0.28
			c0.35-0.19,0.64-0.44,0.85-0.78c0.22-0.33,0.37-0.73,0.47-1.18s0.14-0.95,0.14-1.5c0-0.89-0.1-1.63-0.31-2.23
			c-0.2-0.6-0.51-1.05-0.93-1.36c-0.41-0.31-0.94-0.46-1.59-0.46c-0.94,0-1.64,0.31-2.1,0.93
			C328.76,542.33,328.53,543.29,328.53,544.58z"/>
		<path class="st14" d="M346.35,540.11v0.44c-0.23,0.04-0.42,0.09-0.56,0.14c-0.14,0.05-0.24,0.12-0.32,0.21
			c-0.08,0.09-0.12,0.2-0.15,0.35c-0.02,0.14-0.03,0.32-0.03,0.53v6.67h1.89c0.38,0,0.68-0.04,0.91-0.12
			c0.23-0.08,0.42-0.2,0.59-0.37c0.17-0.17,0.31-0.39,0.43-0.66c0.12-0.27,0.22-0.52,0.29-0.76h1.34l-0.22,2.7h-9.3v-0.44
			c0.24-0.04,0.43-0.09,0.57-0.15s0.24-0.13,0.31-0.22c0.07-0.09,0.11-0.21,0.13-0.35s0.03-0.32,0.03-0.53v-5.76
			c0-0.21-0.01-0.39-0.02-0.53c-0.02-0.14-0.06-0.26-0.13-0.35c-0.07-0.09-0.17-0.16-0.31-0.22c-0.14-0.06-0.33-0.11-0.58-0.15
			v-0.44H346.35z"/>
		<path class="st14" d="M363.92,540.11v2.13h-1.34c-0.22-0.42-0.4-0.71-0.55-0.86c-0.15-0.15-0.33-0.27-0.54-0.35
			c-0.21-0.09-0.56-0.13-1.06-0.13h-2.13v3.21h1.29c0.29,0,0.51-0.03,0.67-0.08c0.16-0.06,0.3-0.15,0.41-0.28
			c0.11-0.13,0.21-0.33,0.31-0.6h1.1v2.72h-1.1c-0.09-0.26-0.19-0.46-0.3-0.59c-0.11-0.14-0.24-0.23-0.4-0.29
			c-0.15-0.06-0.38-0.09-0.69-0.09h-1.29v3.57h2.12c0.23,0,0.42-0.01,0.58-0.03s0.3-0.05,0.42-0.1c0.12-0.05,0.24-0.12,0.36-0.2
			c0.11-0.08,0.22-0.18,0.3-0.27c0.09-0.1,0.18-0.23,0.28-0.39c0.1-0.16,0.2-0.38,0.32-0.66h1.34l-0.19,2.44h-9.6v-0.44
			c0.24-0.04,0.43-0.09,0.57-0.14c0.14-0.05,0.24-0.12,0.31-0.21c0.07-0.09,0.11-0.21,0.13-0.35c0.02-0.14,0.03-0.32,0.03-0.53
			v-5.77c0-0.21-0.01-0.39-0.02-0.53c-0.02-0.14-0.06-0.26-0.13-0.35c-0.07-0.09-0.17-0.16-0.31-0.22
			c-0.14-0.06-0.33-0.11-0.58-0.15v-0.44H363.92z"/>
		<path class="st14" d="M372.75,540.11v0.44c-0.31,0.02-0.52,0.07-0.65,0.14c-0.13,0.07-0.19,0.19-0.19,0.34
			c0,0.08,0.02,0.16,0.07,0.26c0.05,0.1,0.12,0.21,0.23,0.34c0.1,0.13,0.28,0.34,0.53,0.63l0.91,1.04l1.18-1.19
			c0.26-0.26,0.43-0.47,0.52-0.61c0.09-0.14,0.13-0.29,0.13-0.45c0-0.14-0.07-0.26-0.21-0.34s-0.34-0.14-0.6-0.16v-0.44h4.03v0.45
			c-0.19,0.04-0.37,0.09-0.54,0.17s-0.37,0.21-0.59,0.39c-0.22,0.18-0.58,0.51-1.06,0.99l-2.11,2.06l3.18,3.6
			c0.11,0.12,0.22,0.24,0.34,0.36c0.11,0.12,0.22,0.22,0.33,0.31c0.11,0.09,0.2,0.16,0.28,0.2c0.08,0.04,0.16,0.08,0.24,0.1
			c0.08,0.02,0.16,0.04,0.24,0.06v0.44h-5.43v-0.44c0.29-0.02,0.5-0.07,0.63-0.14c0.14-0.07,0.21-0.19,0.21-0.34
			c0-0.05-0.01-0.11-0.03-0.17c-0.02-0.06-0.06-0.14-0.12-0.23c-0.06-0.09-0.11-0.17-0.17-0.24c-0.06-0.07-0.17-0.2-0.34-0.4
			l-1.36-1.53l-1.59,1.61c-0.12,0.13-0.23,0.25-0.31,0.35c-0.08,0.11-0.14,0.21-0.18,0.29c-0.03,0.09-0.05,0.19-0.05,0.31
			s0.07,0.23,0.21,0.31c0.14,0.09,0.34,0.14,0.6,0.16v0.44h-4.04v-0.44c0.22-0.04,0.41-0.11,0.59-0.2c0.18-0.09,0.37-0.22,0.59-0.4
			c0.21-0.17,0.5-0.44,0.87-0.81l2.55-2.5l-2.46-2.8c-0.27-0.3-0.5-0.56-0.69-0.76c-0.19-0.2-0.35-0.35-0.48-0.46
			c-0.13-0.11-0.25-0.18-0.35-0.22c-0.1-0.04-0.22-0.08-0.36-0.09v-0.44H372.75z"/>
	</g>
	<g>
		<path class="st5" d="M313.09,560.17c-1.5,0-2.48-1.24-2.48-3.21c0-1.95,0.98-3.17,2.48-3.17c0.66,0,1.18,0.28,1.58,0.71l0.58-0.64
			c-0.47-0.5-1.21-0.96-2.16-0.96c-2.05,0-3.53,1.55-3.53,4.08c0,2.57,1.49,4.08,3.43,4.08c1.04,0,1.82-0.42,2.44-1.14l-0.58-0.61
			C314.36,559.86,313.81,560.17,313.09,560.17z"/>
		<path class="st5" d="M319.58,552.91c-1.77,0-3.02,1.5-3.02,4.04c0,2.58,1.25,4.11,3.02,4.11s3.02-1.54,3.02-4.11
			C322.6,554.41,321.36,552.91,319.58,552.91z M319.58,560.17c-1.19,0-1.98-1.21-1.98-3.23c0-1.98,0.79-3.15,1.98-3.15
			c1.19,0,1.98,1.18,1.98,3.15C321.56,558.96,320.77,560.17,319.58,560.17z"/>
		<path class="st5" d="M327.88,556.72l-1.1-0.49c-0.67-0.26-1.4-0.54-1.4-1.3c0-0.71,0.61-1.14,1.52-1.14
			c0.82,0,1.42,0.28,1.93,0.73l0.53-0.65c-0.58-0.58-1.44-0.97-2.42-0.97c-1.5,0-2.58,0.89-2.58,2.09c0,1.16,0.91,1.72,1.69,2.03
			l1.14,0.5c0.79,0.34,1.4,0.58,1.4,1.42c0,0.72-0.62,1.24-1.7,1.24c-0.89,0-1.7-0.38-2.3-0.97l-0.6,0.7
			c0.71,0.71,1.7,1.16,2.85,1.16c1.73,0,2.78-1,2.78-2.24C329.62,557.66,328.85,557.1,327.88,556.72z"/>
		<path class="st5" d="M334.38,556.41l-0.37,1.27h-0.05l-0.38-1.27l-1.1-3.36h-1.22v7.87h0.94v-3.93c0-0.77-0.1-2.11-0.17-2.78h0.02
			l0.46,1.54l1.1,3.09h0.72l1.13-3.09l0.44-1.54h0.04c-0.05,0.67-0.17,2.02-0.17,2.78v3.93h0.96v-7.87h-1.22L334.38,556.41z"/>
		<path class="st5" d="M341.18,552.91c-1.78,0-3.02,1.5-3.02,4.04c0,2.58,1.25,4.11,3.02,4.11c1.77,0,3.02-1.54,3.02-4.11
			C344.2,554.41,342.95,552.91,341.18,552.91z M341.18,560.17c-1.19,0-1.98-1.21-1.98-3.23c0-1.98,0.79-3.15,1.98-3.15
			c1.19,0,1.98,1.18,1.98,3.15C343.16,558.96,342.37,560.17,341.18,560.17z"/>
		<path class="st5" d="M348.68,557.67h1.56v2.05c-0.29,0.29-0.8,0.46-1.36,0.46c-1.54,0-2.41-1.24-2.41-3.21
			c0-1.95,0.96-3.17,2.43-3.17c0.76,0,1.22,0.31,1.59,0.71l0.58-0.64c-0.44-0.47-1.13-0.96-2.17-0.96c-2.04,0-3.49,1.54-3.49,4.08
			c0,2.57,1.43,4.08,3.41,4.08c1.02,0,1.86-0.41,2.35-0.91v-3.31h-2.49V557.67z"/>
		<path class="st5" d="M358.39,555.27c0-1.64-1.16-2.22-2.76-2.22h-2.46v7.87h1.02v-3.32h1.39l1.89,3.32h1.14l-2-3.44
			C357.68,557.21,358.39,556.49,358.39,555.27z M354.19,553.87h1.29c1.22,0,1.9,0.37,1.9,1.4c0,1.01-0.67,1.51-1.9,1.51h-1.29
			V553.87z"/>
		<path class="st5" d="M362.2,553.05l-2.65,7.87h1.03l0.75-2.39h2.86l0.74,2.39h1.08l-2.65-7.87H362.2z M363.94,557.72h-2.35
			l0.37-1.19c0.28-0.88,0.53-1.74,0.78-2.65h0.05c0.24,0.91,0.5,1.77,0.78,2.65L363.94,557.72z"/>
		<path class="st5" d="M369.98,553.05h-2.37v7.87h1.01v-3.12h1.37c1.73,0,2.92-0.77,2.92-2.43
			C372.89,553.64,371.72,553.05,369.98,553.05z M369.86,556.98h-1.25v-3.12h1.25c1.35,0,2.03,0.37,2.03,1.5
			C371.89,556.48,371.23,556.98,369.86,556.98z"/>
		<polygon class="st5" points="378.81,553.05 378.81,556.34 375.55,556.34 375.55,553.05 374.53,553.05 374.53,560.92 
			375.55,560.92 375.55,557.22 378.81,557.22 378.81,560.92 379.83,560.92 379.83,553.05 		"/>
	</g>
	<g>
		<g>
			<path class="st15" d="M130.77,777.14l54.43,148.49c2.79,7.62,9.24,13.31,17.15,15.13l7.52,1.73c1.25,0.29,2.45-0.66,2.45-1.94
				c0-29.87,0-86.37,0-86.37"/>
			<line class="st15" x1="140.43" y1="790.44" x2="189.68" y2="933.17"/>
		</g>
		<g>
			<path class="st15" d="M558.79,777.14l-54.43,148.49c-2.79,7.62-9.24,13.31-17.15,15.13l-7.06,1.62
				c-1.25,0.29-2.45-0.66-2.45-1.94c0-29.96,0-86.54,0-86.54"/>
			<line class="st15" x1="549.13" y1="790.44" x2="499.88" y2="933.17"/>
		</g>
		<path class="st15" d="M212.32,888.75v40.42c0,2.21,1.79,4,4,4c0,0,52.75,0,73.42,0c2.21,0,3.99,1.79,3.99,4v24.72
			c0,2.21,1.79,4,4,4h94.08c2.21,0,4-1.79,4-4v-24.72c0-2.21,1.79-4,3.99-4c19.57,0,73.88,0,73.88,0c2.21,0,4-1.79,4-4v-38.52"/>
		<g>
			<path class="st15" d="M289.73,1044.23h-59.77c-2.07,0-3.79-1.57-3.98-3.63l-9.66-103.44c0-2.21,1.79-4,4-4h69.41
				c2.21,0,4,1.79,4,4v103.06C293.73,1042.44,291.94,1044.23,289.73,1044.23z"/>
			<path class="st15" d="M289.73,1044.23h-59.77c-2.07,0-3.79,1.57-3.98,3.63l8.34,103.44c0,2.21,1.79,4,4,4h51.41
				c2.21,0,4-1.79,4-4v-103.06C293.73,1046.02,291.94,1044.23,289.73,1044.23z"/>
			<path class="st15" d="M239.78,1244.08l-5.46-84.79c0-2.21,1.79-4,4-4h51.41c2.21,0,4,1.79,4,4v84.79H239.78z"/>
		</g>
		<g>
			<path class="st15" d="M399.83,1044.23h59.77c2.07,0,3.79-1.57,3.98-3.63l9.66-103.44c0-2.21-1.79-4-4-4h-69.41
				c-2.21,0-4,1.79-4,4v103.06C395.83,1042.44,397.62,1044.23,399.83,1044.23z"/>
			<path class="st15" d="M399.83,1044.23h59.77c2.07,0,3.79,1.57,3.98,3.63l-8.34,103.44c0,2.21-1.79,4-4,4h-51.41
				c-2.21,0-4-1.79-4-4v-103.06C395.83,1046.02,397.62,1044.23,399.83,1044.23z"/>
			<path class="st15" d="M449.78,1244.08l5.46-84.79c0-2.21-1.79-4-4-4h-51.41c-2.21,0-4,1.79-4,4v84.79H449.78z"/>
		</g>
		<path class="st15" d="M391.83,1084.17h-94.09c-2.21,0-4-1.79-4-4V969.89c0-2.21,1.79-4,4-4h94.09c2.21,0,4,1.79,4,4v110.28
			C395.83,1082.38,394.04,1084.17,391.83,1084.17z"/>
		<path class="st15" d="M391.83,1202.46h-94.09c-2.21,0-4-1.79-4-4v-110.28c0-2.21,1.79-4,4-4h94.09c2.21,0,4,1.79,4,4v110.28
			C395.83,1200.66,394.04,1202.46,391.83,1202.46z"/>
		<path class="st15" d="M293.73,1244.08v-37.63c0-2.21,1.79-4,4-4h94.09c2.21,0,4,1.79,4,4v37.63H293.73z"/>
	</g>
	<g>
		<g>
			<path class="st15" d="M130.77,487.22l54.43-148.49c2.79-7.62,9.24-13.31,17.15-15.13l7.52-1.73c1.25-0.29,2.45,0.66,2.45,1.94
				c0,29.87,0,86.37,0,86.37"/>
			<line class="st15" x1="140.43" y1="473.92" x2="189.68" y2="331.19"/>
		</g>
		<g>
			<path class="st15" d="M558.79,487.22l-54.43-148.49c-2.79-7.62-9.24-13.31-17.15-15.13l-7.06-1.62
				c-1.25-0.29-2.45,0.66-2.45,1.94c0,29.96,0,86.54,0,86.54"/>
			<line class="st15" x1="549.13" y1="473.92" x2="499.88" y2="331.19"/>
		</g>
		<path class="st15" d="M212.32,375.61v-40.42c0-2.21,1.79-4,4-4c0,0,52.75,0,73.42,0c2.21,0,3.99-1.79,3.99-4v-24.72
			c0-2.21,1.79-4,4-4h94.08c2.21,0,4,1.79,4,4v24.72c0,2.21,1.79,4,3.99,4c19.57,0,73.88,0,73.88,0c2.21,0,4,1.79,4,4v38.52"/>
		<g>
			<path class="st15" d="M289.73,220.12h-59.77c-2.07,0-3.79,1.57-3.98,3.63l-9.66,103.44c0,2.21,1.79,4,4,4h69.41
				c2.21,0,4-1.79,4-4V224.12C293.73,221.92,291.94,220.12,289.73,220.12z"/>
			<path class="st15" d="M289.73,220.12h-59.77c-2.07,0-3.79-1.57-3.98-3.63l8.34-103.44c0-2.21,1.79-4,4-4h51.41c2.21,0,4,1.79,4,4
				v103.06C293.73,218.33,291.94,220.12,289.73,220.12z"/>
			<path class="st15" d="M239.78,20.27l-5.46,84.79c0,2.21,1.79,4,4,4h51.41c2.21,0,4-1.79,4-4V20.27L239.78,20.27z"/>
		</g>
		<g>
			<path class="st15" d="M399.83,220.12h59.77c2.07,0,3.79,1.57,3.98,3.63l9.66,103.44c0,2.21-1.79,4-4,4h-69.41c-2.21,0-4-1.79-4-4
				V224.12C395.83,221.92,397.62,220.12,399.83,220.12z"/>
			<path class="st15" d="M399.83,220.12h59.77c2.07,0,3.79-1.57,3.98-3.63l-8.34-103.44c0-2.21-1.79-4-4-4h-51.41
				c-2.21,0-4,1.79-4,4v103.06C395.83,218.33,397.62,220.12,399.83,220.12z"/>
			<path class="st15" d="M449.78,20.27l5.46,84.79c0,2.21-1.79,4-4,4h-51.41c-2.21,0-4-1.79-4-4V20.27L449.78,20.27z"/>
		</g>
		<path class="st15" d="M391.83,180.18h-94.09c-2.21,0-4,1.79-4,4v110.28c0,2.21,1.79,4,4,4h94.09c2.21,0,4-1.79,4-4V184.18
			C395.83,181.97,394.04,180.18,391.83,180.18z"/>
		<path class="st15" d="M391.83,61.9h-94.09c-2.21,0-4,1.79-4,4v110.28c0,2.21,1.79,4,4,4h94.09c2.21,0,4-1.79,4-4V65.9
			C395.83,63.69,394.04,61.9,391.83,61.9z"/>
		<path class="st15" d="M293.73,20.27V57.9c0,2.21,1.79,4,4,4h94.09c2.21,0,4-1.79,4-4V20.27H293.73z"/>
	</g>
	<g>
		<g>
			<path class="st0" d="M601.82,662.44c0.67,0.87,1.91,2.84,2.09,5.7c0.03,0.55,0.3,1.05,0.71,1.39
				c4.82,4.06,24.62,11.37,26.17-2.77c0.06-0.53,0.29-1.02,0.68-1.35c1.45-1.23,2.33-2.1,2.8-2.61c0.3-0.32,0.48-0.73,0.53-1.17
				c0.4-3.65,2.32-21.55,2.32-29.35c0-7.8-1.92-25.84-2.32-29.48c-0.05-0.45-0.23-0.85-0.53-1.17c-0.47-0.51-1.34-1.38-2.8-2.61
				c-0.39-0.33-0.62-0.82-0.68-1.35c-1.55-14.13-21.35-6.83-26.17-2.77c-0.41,0.34-0.67,0.84-0.71,1.39
				c-0.18,2.86-1.42,4.83-2.09,5.7"/>
			<line class="st0" x1="634.79" y1="602.79" x2="634.79" y2="661.63"/>
			<line class="st0" x1="631.46" y1="599.01" x2="631.46" y2="665.41"/>
			<line class="st0" x1="629.65" y1="670.69" x2="629.65" y2="593.74"/>
			<path class="st0" d="M603.39,598.96c0,0,7.54-7.63,25.58-6.28"/>
			<path class="st16" d="M603.39,604.74c2.79-2.11,10.1-7.86,26.25-7.07l-4.11-5.15"/>
			<path class="st16" d="M625.01,597.59l4.64,7.15c0,0-19.66-1.03-26.25,5.86"/>
			<path class="st16" d="M624.35,604.73l5.3,7.61c0,0-19.67-1.39-26.46,4.88"/>
			<path class="st16" d="M629.65,612.33l-4.37,3.2c0,0-11.96-2.04-21.41,2.82"/>
			<path class="st16" d="M625.27,615.53l4.37,6.44c0,0-17.96-1.83-26.78,3.4"/>
			<path class="st16" d="M629.65,621.97l-4.05,4.69c0,0-10.65-1.56-21.73,1.53"/>
			<line class="st16" x1="625.6" y1="626.66" x2="629.65" y2="632.28"/>
			<path class="st0" d="M603.39,665.59c0,0,7.54,7.63,25.58,6.28"/>
			<path class="st16" d="M603.39,659.81c2.79,2.11,10.1,7.86,26.25,7.07l-4.11,5.15"/>
			<path class="st16" d="M602.42,663.46c0,0-0.6-3.11,0.97-3.64c-0.46-0.94-1.4-3.83,0-6.09c-0.73-2.08-1.17-5.62,0.47-7.53
				c-0.82-1.91-1.56-6.5,0-9.83c-0.99-2.04-0.78-4.16-0.78-4.16v0.14c0,0-0.21-2.12,0.78-4.16c-1.35-3.5-0.82-7.92,0-9.83
				c-1.64-1.91-1.2-5.44-0.47-7.53c-1.4-2.26-0.46-5.15,0-6.09c-1.57-0.53-0.97-3.64-0.97-3.64"/>
			<path class="st16" d="M625.01,666.96l4.64-7.15c0,0-19.66,1.03-26.25-5.86"/>
			<path class="st16" d="M624.35,659.83l5.3-7.61c0,0-19.67,1.39-26.46-4.88"/>
			<path class="st16" d="M629.65,652.22l-4.37-3.2c0,0-11.96,2.04-21.41-2.82"/>
			<path class="st16" d="M625.27,649.02l4.37-6.44c0,0-17.96,1.83-26.78-3.4"/>
			<path class="st16" d="M629.65,642.58l-4.05-4.69c0,0-10.65,1.56-21.73-1.53"/>
			<polyline class="st16" points="625.6,637.89 629.65,632.28 603.09,632.28 			"/>
		</g>
	</g>
	<g>
		<path class="st0" d="M567.43,500.91l9.98-5.24c3.92-2.06,21.59,31.58,17.67,33.64l-10.79,5.67"/>
		<path class="st0" d="M577.09,495.83c-1.5-4.54-1.91-7.62-0.86-8.17c2.12-1.11,9.38,8.54,16.22,21.57
			c6.84,13.02,10.67,24.48,8.55,25.6c-1.05,0.55-3.35-1.53-6.24-5.35"/>
		<path class="st0" d="M601,534.82l28.95-15.21c2.12-1.11-1.71-12.57-8.55-25.6c-6.84-13.02-14.1-22.68-16.22-21.57l-28.95,15.21"/>
	</g>
	<g>
		<path class="st0" d="M567.43,764.45l9.98,5.24c3.92,2.06,21.59-31.58,17.67-33.64l-10.79-5.67"/>
		<path class="st0" d="M577.09,769.52c-1.5,4.54-1.91,7.62-0.86,8.17c2.12,1.11,9.38-8.54,16.22-21.57
			c6.84-13.02,10.67-24.48,8.55-25.6c-1.05-0.55-3.35,1.53-6.24,5.35"/>
		<path class="st0" d="M601,730.53l28.95,15.21c2.12,1.11-1.71,12.57-8.55,25.6c-6.84,13.02-14.1,22.68-16.22,21.57l-28.95-15.21"/>
	</g>
</g>
</svg>
